<svg width="500" height="500" viewBox="0 0 500 500" fill="none" xmlns="http://www.w3.org/2000/svg">
<path d="M449.9 398.49H416.78V398.74H449.9V398.49Z" fill="#EBEBEB"/>
<path d="M331.22 401.21H322.53V401.46H331.22V401.21Z" fill="#EBEBEB"/>
<path d="M415.78 389.21H396.59V389.46H415.78V389.21Z" fill="#EBEBEB"/>
<path d="M95.65 390.89H52.46V391.14H95.65V390.89Z" fill="#EBEBEB"/>
<path d="M110.89 390.89H104.56V391.14H110.89V390.89Z" fill="#EBEBEB"/>
<path d="M225.15 395.11H131.47V395.36H225.15V395.11Z" fill="#EBEBEB"/>
<path d="M98.8799 382.65C98.6559 382.63 98.4492 382.522 98.3049 382.349C98.1605 382.177 98.0904 381.954 98.1099 381.73L115.11 177.44H116.81V179.13H116.67L99.7999 381.87C99.7795 382.095 99.6716 382.303 99.4995 382.449C99.3274 382.595 99.1049 382.667 98.8799 382.65Z" fill="#E0E0E0"/>
<path d="M174.65 382.65C174.875 382.63 175.082 382.522 175.228 382.35C175.374 382.178 175.447 381.955 175.43 381.73L158.38 177.44H156.68V179.13H156.82L167.72 309.77H112.87L101.82 177.44H100.13V179.13H100.27L117.19 381.87C117.208 382.094 117.314 382.302 117.484 382.448C117.655 382.594 117.876 382.667 118.1 382.65V382.65C118.325 382.63 118.532 382.522 118.678 382.35C118.824 382.178 118.897 381.955 118.88 381.73L113 311.47H167.85L173.73 381.87C173.75 382.095 173.858 382.303 174.03 382.449C174.202 382.595 174.425 382.667 174.65 382.65Z" fill="#E0E0E0"/>
<path d="M178.57 282.79H97.5598L87.3398 160.24H168.35L178.57 282.79Z" fill="#EBEBEB"/>
<path d="M174.89 279.4L165.23 163.63H91.02L100.68 279.4H174.89Z" fill="#FAFAFA"/>
<path d="M179.16 285.48H98.0899C97.3782 285.477 96.6966 285.193 96.1943 284.689C95.6919 284.185 95.4099 283.502 95.4099 282.79V282.79C95.4099 282.078 95.6919 281.396 96.1943 280.892C96.6966 280.387 97.3782 280.103 98.0899 280.1H179.16C179.872 280.103 180.553 280.387 181.056 280.892C181.558 281.396 181.84 282.078 181.84 282.79C181.84 283.502 181.558 284.185 181.056 284.689C180.553 285.193 179.872 285.477 179.16 285.48Z" fill="#E6E6E6"/>
<path d="M339.14 353C338.01 339.4 333.33 331.36 329.59 327C327.461 324.355 324.765 322.222 321.7 320.76L322.06 319.82C322.22 319.88 337.92 326.24 340.14 352.91L339.14 353Z" fill="#E6E6E6"/>
<path d="M342.89 350.34H341.89C342.41 305.86 311.67 292.6 311.36 292.47L311.74 291.54C312.06 291.67 343.41 305.19 342.89 350.34Z" fill="#E6E6E6"/>
<path d="M345.82 350.33C345.75 333.53 349.75 322.33 357.72 317.14C367.86 310.5 380.93 316.14 381.06 316.2L380.66 317.12C380.53 317.06 367.94 311.64 358.27 317.98C350.6 322.98 346.75 333.89 346.82 350.33H345.82Z" fill="#E6E6E6"/>
<path d="M344.35 357.73C341.35 332.65 341.89 304.46 341.9 304.18H342.9C342.9 304.46 342.37 332.58 345.35 357.59L344.35 357.73Z" fill="#E6E6E6"/>
<path d="M349.84 350.34H348.84C349.66 307.13 355.38 282.34 365.37 278.75C371.08 276.68 375.9 282.13 376.1 282.37L375.34 283.02C375.34 282.97 370.77 277.85 365.7 279.69C359 282.09 350.87 296.32 349.84 350.34Z" fill="#E6E6E6"/>
<path d="M383.38 313.55C383.38 313.55 396.27 292.67 405.95 311.67C413.8 327.09 400.85 340.08 400.85 340.08C400.85 340.08 345.34 331.5 359 312.19C367.47 300.3 383.38 313.55 383.38 313.55Z" fill="#F0F0F0"/>
<path d="M385 315C385 315 401.73 315.42 401.6 316.7C401.47 317.98 387 315.93 388 318C389 320.07 402.59 324.05 402.42 325.78C402.25 327.51 389.9 321 390.21 322.6C390.52 324.2 398.02 332.84 397.82 334.75C397.62 336.66 391.03 325.31 389.82 326.23C388.61 327.15 386.5 335.97 386.03 333.77C385.56 331.57 388.2 322.77 386.5 320.67C384.8 318.57 370.92 327.62 368.5 325.62C366.08 323.62 383.07 320.1 385 315Z" fill="#E0E0E0"/>
<path d="M376.31 314.31C376.31 314.31 362.73 312.04 361.66 315.6C360.59 319.16 364.26 315.87 376.31 314.31Z" fill="#E0E0E0"/>
<path d="M304.59 290.52C304.59 290.52 293.9 268.43 282.33 286.35C272.95 300.88 284.5 315.13 284.5 315.13C284.5 315.13 340.59 312.26 328.94 291.65C321.77 279 304.59 290.52 304.59 290.52Z" fill="#F0F0F0"/>
<path d="M302.84 291.75C302.84 291.75 286.16 290.45 286.16 291.75C286.16 293.05 300.77 292.52 299.55 294.43C298.33 296.34 284.42 298.95 284.42 300.69C284.42 302.43 297.36 297.21 296.89 298.78C296.42 300.35 288.07 308.17 288.07 310.08C288.07 311.99 295.79 301.39 296.89 302.43C297.99 303.47 299.2 312.43 299.89 310.31C300.58 308.19 298.89 299.16 300.76 297.23C302.63 295.3 315.54 305.74 318.15 304C320.76 302.26 304.23 297.06 302.84 291.75Z" fill="#E0E0E0"/>
<path d="M311.55 292C311.55 292 325.29 291.13 325.98 294.78C326.67 298.43 323.37 294.78 311.55 292Z" fill="#E0E0E0"/>
<path d="M373.43 278.65C373.43 278.65 379.84 265.39 386.78 276.14C392.41 284.86 385.48 293.41 385.48 293.41C385.48 293.41 351.83 291.69 358.82 279.32C363.12 271.71 373.43 278.65 373.43 278.65Z" fill="#F0F0F0"/>
<path d="M374.47 279.38C374.47 279.38 384.47 278.61 384.47 279.38C384.47 280.15 375.71 279.84 376.47 280.99C377.23 282.14 385.55 283.7 385.55 284.75C385.55 285.8 377.78 282.66 378.07 283.6C378.36 284.54 383.36 289.23 383.36 290.38C383.36 291.53 378.72 285.17 378.07 285.79C377.42 286.41 376.68 291.79 376.26 290.52C375.84 289.25 376.89 283.83 375.74 282.67C374.59 281.51 366.87 287.77 365.31 286.73C363.75 285.69 373.65 282.57 374.47 279.38Z" fill="#E0E0E0"/>
<path d="M369.25 279.53C369.25 279.53 361.01 279.01 360.59 281.2C360.17 283.39 362.16 281.2 369.25 279.53Z" fill="#E0E0E0"/>
<path d="M354.89 335.2C354.89 335.2 359.03 326.65 363.51 333.59C367.14 339.21 362.67 344.73 362.67 344.73C362.67 344.73 340.96 343.62 345.47 335.64C348.24 330.73 354.89 335.2 354.89 335.2Z" fill="#F0F0F0"/>
<path d="M355.57 335.68C355.57 335.68 362.03 335.18 362.03 335.68C362.03 336.18 356.37 335.97 356.84 336.68C357.31 337.39 362.7 338.43 362.7 339.1C362.7 339.77 357.7 337.75 357.87 338.36C358.04 338.97 361.29 341.99 361.29 342.73C361.29 343.47 358.29 339.37 357.87 339.73C357.45 340.09 356.98 343.61 356.71 342.78C356.44 341.95 357.11 338.47 356.37 337.72C355.63 336.97 350.65 341.01 349.64 340.34C348.63 339.67 355 337.73 355.57 335.68Z" fill="#E0E0E0"/>
<path d="M352.2 335.77C352.2 335.77 346.88 335.44 346.61 336.85C346.34 338.26 347.62 336.85 352.2 335.77Z" fill="#E0E0E0"/>
<path d="M317.9 321.89C317.9 321.89 305.26 314.35 305.37 327.14C305.46 337.52 315.95 340.85 315.95 340.85C315.95 340.85 343.11 320.92 330.48 314.43C322.71 310.44 317.9 321.89 317.9 321.89Z" fill="#F0F0F0"/>
<path d="M317.43 323.08C317.43 323.08 308.64 327.94 309.07 328.58C309.5 329.22 316.64 324.15 316.66 325.51C316.68 326.87 310.57 332.77 311.14 333.64C311.71 334.51 316.49 327.64 316.76 328.57C317.03 329.5 315.44 336.18 316.07 337.14C316.7 338.1 317.07 330.24 317.97 330.4C318.87 330.56 322.43 334.67 322.07 333.4C321.71 332.13 317.88 328.16 318.2 326.56C318.52 324.96 328.41 325.95 329.14 324.22C329.87 322.49 319.88 325.29 317.43 323.08Z" fill="#E0E0E0"/>
<path d="M321.88 320.34C321.88 320.34 328.48 315.34 330.03 316.98C331.58 318.62 328.72 317.84 321.88 320.34Z" fill="#E0E0E0"/>
<path d="M347.87 296.65C347.87 296.65 359.41 289.76 359.31 301.44C359.23 310.91 349.66 313.95 349.66 313.95C349.66 313.95 324.86 295.77 336.39 289.84C343.49 286.2 347.87 296.65 347.87 296.65Z" fill="#F0F0F0"/>
<path d="M348.3 297.74C348.3 297.74 356.3 302.17 355.93 302.74C355.56 303.31 349.02 298.74 349 299.94C348.98 301.14 354.56 306.56 354 307.36C353.44 308.16 349.12 301.87 348.87 302.73C348.62 303.59 350.08 309.68 349.5 310.55C348.92 311.42 348.58 304.25 347.77 304.4C346.96 304.55 343.69 308.29 344.02 307.1C344.35 305.91 347.85 302.31 347.56 300.85C347.27 299.39 338.24 300.3 337.56 298.72C336.88 297.14 346.07 299.76 348.3 297.74Z" fill="#E0E0E0"/>
<path d="M344.24 295.23C344.24 295.23 338.24 290.7 336.8 292.16C335.36 293.62 338 293 344.24 295.23Z" fill="#E0E0E0"/>
<path d="M318.07 348.5L326.7 382.52H364.8L373.42 348.5H318.07Z" fill="#E6E6E6"/>
<path d="M250 427.01C357.083 427.01 443.89 421.942 443.89 415.69C443.89 409.438 357.083 404.37 250 404.37C142.918 404.37 56.1101 409.438 56.1101 415.69C56.1101 421.942 142.918 427.01 250 427.01Z" fill="#F5F5F5"/>
<path d="M363.4 265.52V264.52C365.37 264.521 367.338 264.387 369.29 264.12L369.42 265.12C367.425 265.387 365.413 265.521 363.4 265.52ZM359.4 265.33C357.377 265.15 355.372 264.816 353.4 264.33L353.65 263.33C355.556 263.808 357.494 264.142 359.45 264.33L359.4 265.33ZM373.4 264.41L373.18 263.41C375.105 262.979 377.002 262.432 378.86 261.77L379.19 262.71C377.292 263.401 375.351 263.968 373.38 264.41H373.4ZM349.59 263.11C347.696 262.404 345.871 261.524 344.14 260.48L344.66 259.63C346.34 260.637 348.107 261.49 349.94 262.18L349.59 263.11ZM382.92 261.24L382.51 260.33C384.302 259.511 386.042 258.583 387.72 257.55L388.24 258.4C386.522 259.459 384.739 260.408 382.9 261.24H382.92ZM340.82 258.18C339.964 257.506 339.146 256.785 338.37 256.02C337.71 255.37 337.06 254.69 336.44 254.02L337.18 253.34C337.79 254.01 338.42 254.67 339.07 255.34C339.822 256.082 340.613 256.783 341.44 257.44L340.82 258.18ZM391.56 256.12L390.96 255.32C392.531 254.139 394.012 252.842 395.39 251.44L395.47 251.36L396.18 252.07L396.1 252.14C394.681 253.579 393.157 254.909 391.54 256.12H391.56ZM333.87 250.93C332.65 249.339 331.538 247.669 330.54 245.93L331.41 245.44C332.382 247.151 333.468 248.795 334.66 250.36L333.87 250.93ZM398.87 249.04L398.08 248.42C399.295 246.881 400.366 245.234 401.28 243.5L402.17 243.96C401.207 245.737 400.086 247.424 398.82 249L398.87 249.04ZM328.76 242.3C327.945 240.456 327.276 238.55 326.76 236.6L327.76 236.34C328.284 238.238 328.953 240.094 329.76 241.89L328.76 242.3ZM403.81 240.3L402.87 239.95C403.55 238.115 404.04 236.215 404.33 234.28L405.33 234.43C405.006 236.425 404.48 238.382 403.76 240.27L403.81 240.3ZM325.92 232.68C325.67 231.008 325.543 229.32 325.54 227.63C325.54 227.3 325.54 226.97 325.54 226.63H326.54C326.54 226.95 326.54 227.27 326.54 227.63C326.544 229.27 326.668 230.908 326.91 232.53L325.92 232.68ZM405.66 230.4H404.66V229.87C404.66 228.087 404.506 226.307 404.2 224.55L405.2 224.38C405.509 226.194 405.666 228.03 405.67 229.87L405.66 230.4ZM326.92 222.77L325.92 222.62C326.23 220.621 326.729 218.655 327.41 216.75L328.35 217.09C327.679 218.922 327.184 220.814 326.87 222.74L326.92 222.77ZM403.32 220.71C402.765 218.826 402.066 216.987 401.23 215.21L402.13 214.79C402.996 216.61 403.715 218.496 404.28 220.43L403.32 220.71ZM329.91 213.49L329 213C329.918 211.199 330.992 209.483 332.21 207.87L333 208.47C331.81 210.039 330.759 211.709 329.86 213.46L329.91 213.49ZM399.39 211.74C398.384 210.048 397.272 208.422 396.06 206.87L396.84 206.25C398.082 207.842 399.221 209.512 400.25 211.25L399.39 211.74ZM335.56 205.51L334.83 204.83C335.02 204.62 335.22 204.42 335.42 204.21C336.636 202.98 337.929 201.828 339.29 200.76L339.9 201.54C338.577 202.586 337.318 203.712 336.13 204.91L335.56 205.51ZM393.51 203.86C392.9 203.2 392.27 202.54 391.62 201.86C390.866 201.117 390.075 200.413 389.25 199.75L389.87 198.97C390.724 199.651 391.541 200.375 392.32 201.14C392.98 201.79 393.63 202.46 394.24 203.14L393.51 203.86ZM343.11 199.27L342.57 198.43C344.266 197.344 346.033 196.376 347.86 195.53L348.28 196.44C346.479 197.254 344.735 198.19 343.06 199.24L343.11 199.27ZM386 197.51C384.328 196.485 382.572 195.605 380.75 194.88L381.11 193.95C382.991 194.69 384.801 195.597 386.52 196.66L386 197.51ZM351.87 194.91L351.54 193.97C353.437 193.296 355.374 192.741 357.34 192.31L357.55 193.31C355.625 193.723 353.728 194.257 351.87 194.91V194.91ZM377 193.65C375.105 193.134 373.172 192.766 371.22 192.55L371.33 191.55C373.333 191.767 375.316 192.142 377.26 192.67L377 193.65ZM361.41 192.65L361.28 191.65C363.078 191.428 364.888 191.314 366.7 191.31H367.31V192.31H366.72C364.952 192.307 363.185 192.414 361.43 192.63L361.41 192.65Z" fill="#407BFF"/>
<path d="M330.57 211.21C328.816 210.201 327.123 209.089 325.5 207.88L326.09 207.07C327.689 208.257 329.359 209.346 331.09 210.33L330.57 211.21ZM322.32 205.4C320.77 204.12 319.26 202.76 317.83 201.35L318.53 200.64C319.94 202.02 321.43 203.37 322.95 204.64L322.32 205.4ZM315.03 198.4C313.75 196.99 312.53 195.52 311.4 194.04L312.19 193.43C313.31 194.89 314.51 196.34 315.77 197.73L315.03 198.4Z" fill="#407BFF"/>
<g opacity="0.3">
<path d="M363.4 265.52V264.52C365.37 264.521 367.338 264.387 369.29 264.12L369.42 265.12C367.425 265.387 365.413 265.521 363.4 265.52ZM359.4 265.33C357.377 265.15 355.372 264.816 353.4 264.33L353.65 263.33C355.556 263.808 357.494 264.142 359.45 264.33L359.4 265.33ZM373.4 264.41L373.18 263.41C375.105 262.979 377.002 262.432 378.86 261.77L379.19 262.71C377.292 263.401 375.351 263.968 373.38 264.41H373.4ZM349.59 263.11C347.696 262.404 345.871 261.524 344.14 260.48L344.66 259.63C346.34 260.637 348.107 261.49 349.94 262.18L349.59 263.11ZM382.92 261.24L382.51 260.33C384.302 259.511 386.042 258.583 387.72 257.55L388.24 258.4C386.522 259.459 384.739 260.408 382.9 261.24H382.92ZM340.82 258.18C339.964 257.506 339.146 256.785 338.37 256.02C337.71 255.37 337.06 254.69 336.44 254.02L337.18 253.34C337.79 254.01 338.42 254.67 339.07 255.34C339.822 256.082 340.613 256.783 341.44 257.44L340.82 258.18ZM391.56 256.12L390.96 255.32C392.531 254.139 394.012 252.842 395.39 251.44L395.47 251.36L396.18 252.07L396.1 252.14C394.681 253.579 393.157 254.909 391.54 256.12H391.56ZM333.87 250.93C332.65 249.339 331.538 247.669 330.54 245.93L331.41 245.44C332.382 247.151 333.468 248.795 334.66 250.36L333.87 250.93ZM398.87 249.04L398.08 248.42C399.295 246.881 400.366 245.234 401.28 243.5L402.17 243.96C401.207 245.737 400.086 247.424 398.82 249L398.87 249.04ZM328.76 242.3C327.945 240.456 327.276 238.55 326.76 236.6L327.76 236.34C328.284 238.238 328.953 240.094 329.76 241.89L328.76 242.3ZM403.81 240.3L402.87 239.95C403.55 238.115 404.04 236.215 404.33 234.28L405.33 234.43C405.006 236.425 404.48 238.382 403.76 240.27L403.81 240.3ZM325.92 232.68C325.67 231.008 325.543 229.32 325.54 227.63C325.54 227.3 325.54 226.97 325.54 226.63H326.54C326.54 226.95 326.54 227.27 326.54 227.63C326.544 229.27 326.668 230.908 326.91 232.53L325.92 232.68ZM405.66 230.4H404.66V229.87C404.66 228.087 404.506 226.307 404.2 224.55L405.2 224.38C405.509 226.194 405.666 228.03 405.67 229.87L405.66 230.4ZM326.92 222.77L325.92 222.62C326.23 220.621 326.729 218.655 327.41 216.75L328.35 217.09C327.679 218.922 327.184 220.814 326.87 222.74L326.92 222.77ZM403.32 220.71C402.765 218.826 402.066 216.987 401.23 215.21L402.13 214.79C402.996 216.61 403.715 218.496 404.28 220.43L403.32 220.71ZM329.91 213.49L329 213C329.918 211.199 330.992 209.483 332.21 207.87L333 208.47C331.81 210.039 330.759 211.709 329.86 213.46L329.91 213.49ZM399.39 211.74C398.384 210.048 397.272 208.422 396.06 206.87L396.84 206.25C398.082 207.842 399.221 209.512 400.25 211.25L399.39 211.74ZM335.56 205.51L334.83 204.83C335.02 204.62 335.22 204.42 335.42 204.21C336.636 202.98 337.929 201.828 339.29 200.76L339.9 201.54C338.577 202.586 337.318 203.712 336.13 204.91L335.56 205.51ZM393.51 203.86C392.9 203.2 392.27 202.54 391.62 201.86C390.866 201.117 390.075 200.413 389.25 199.75L389.87 198.97C390.724 199.651 391.541 200.375 392.32 201.14C392.98 201.79 393.63 202.46 394.24 203.14L393.51 203.86ZM343.11 199.27L342.57 198.43C344.266 197.344 346.033 196.376 347.86 195.53L348.28 196.44C346.479 197.254 344.735 198.19 343.06 199.24L343.11 199.27ZM386 197.51C384.328 196.485 382.572 195.605 380.75 194.88L381.11 193.95C382.991 194.69 384.801 195.597 386.52 196.66L386 197.51ZM351.87 194.91L351.54 193.97C353.437 193.296 355.374 192.741 357.34 192.31L357.55 193.31C355.625 193.723 353.728 194.257 351.87 194.91V194.91ZM377 193.65C375.105 193.134 373.172 192.766 371.22 192.55L371.33 191.55C373.333 191.767 375.316 192.142 377.26 192.67L377 193.65ZM361.41 192.65L361.28 191.65C363.078 191.428 364.888 191.314 366.7 191.31H367.31V192.31H366.72C364.952 192.307 363.185 192.414 361.43 192.63L361.41 192.65Z" fill="black"/>
<path d="M330.57 211.21C328.816 210.201 327.123 209.089 325.5 207.88L326.09 207.07C327.689 208.257 329.359 209.346 331.09 210.33L330.57 211.21ZM322.32 205.4C320.77 204.12 319.26 202.76 317.83 201.35L318.53 200.64C319.94 202.02 321.43 203.37 322.95 204.64L322.32 205.4ZM315.03 198.4C313.75 196.99 312.53 195.52 311.4 194.04L312.19 193.43C313.31 194.89 314.51 196.34 315.77 197.73L315.03 198.4Z" fill="black"/>
</g>
<path d="M392.659 201.275L349.886 192.768L338.983 247.584L381.755 256.092L392.659 201.275Z" fill="#407BFF"/>
<path opacity="0.7" d="M392.659 201.275L349.886 192.768L338.983 247.584L381.755 256.092L392.659 201.275Z" fill="white"/>
<path d="M385.498 206.711L352.628 200.003L348.93 218.124L381.8 224.832L385.498 206.711Z" fill="#407BFF"/>
<path d="M381.53 226.61L354.44 221.22C354.197 221.173 353.946 221.223 353.74 221.359C353.534 221.496 353.391 221.708 353.34 221.95V221.95C353.315 222.072 353.315 222.197 353.339 222.318C353.362 222.44 353.41 222.556 353.479 222.659C353.548 222.762 353.636 222.851 353.739 222.92C353.843 222.988 353.958 223.036 354.08 223.06L381.17 228.45C381.291 228.475 381.415 228.475 381.536 228.451C381.658 228.427 381.773 228.379 381.875 228.31C381.977 228.242 382.065 228.153 382.133 228.05C382.201 227.947 382.247 227.831 382.27 227.71C382.295 227.589 382.295 227.465 382.271 227.343C382.247 227.222 382.199 227.107 382.13 227.005C382.061 226.903 381.973 226.815 381.87 226.747C381.767 226.679 381.651 226.633 381.53 226.61Z" fill="#263238"/>
<path d="M349.19 226.87L376.57 232.32C376.692 232.345 376.817 232.345 376.938 232.322C377.06 232.298 377.176 232.25 377.279 232.181C377.382 232.112 377.471 232.024 377.54 231.921C377.608 231.818 377.656 231.702 377.68 231.58V231.58C377.705 231.459 377.705 231.335 377.681 231.214C377.657 231.093 377.609 230.978 377.54 230.875C377.472 230.773 377.383 230.685 377.28 230.617C377.177 230.55 377.061 230.503 376.94 230.48L349.56 225C349.439 224.976 349.315 224.975 349.193 224.999C349.072 225.023 348.957 225.071 348.855 225.14C348.753 225.209 348.665 225.297 348.597 225.4C348.529 225.503 348.483 225.619 348.46 225.74C348.432 225.862 348.429 225.989 348.451 226.112C348.473 226.236 348.519 226.354 348.587 226.459C348.655 226.564 348.743 226.655 348.847 226.726C348.951 226.796 349.067 226.845 349.19 226.87V226.87Z" fill="#263238"/>
<path d="M377.25 235.32L348.64 229.63C348.396 229.583 348.143 229.635 347.937 229.773C347.731 229.912 347.588 230.127 347.54 230.37V230.37C347.515 230.491 347.515 230.616 347.539 230.737C347.563 230.858 347.611 230.973 347.68 231.075C347.748 231.178 347.837 231.265 347.94 231.333C348.043 231.401 348.159 231.448 348.28 231.47L376.88 237.16C377.122 237.196 377.369 237.141 377.574 237.006C377.778 236.872 377.926 236.667 377.99 236.43V236.43C378.015 236.309 378.015 236.184 377.991 236.062C377.968 235.94 377.92 235.824 377.851 235.721C377.782 235.618 377.694 235.53 377.591 235.461C377.487 235.392 377.372 235.344 377.25 235.32V235.32Z" fill="#263238"/>
<path d="M377.56 240.17L351.69 235C351.446 234.953 351.193 235.004 350.987 235.143C350.781 235.282 350.638 235.496 350.59 235.74V235.74C350.565 235.861 350.565 235.985 350.589 236.106C350.613 236.227 350.661 236.343 350.729 236.445C350.798 236.547 350.887 236.635 350.99 236.703C351.093 236.771 351.209 236.817 351.33 236.84L377.2 242C377.444 242.047 377.696 241.996 377.903 241.857C378.109 241.718 378.251 241.504 378.3 241.26V241.26C378.323 241.14 378.322 241.016 378.298 240.896C378.273 240.776 378.225 240.663 378.156 240.561C378.087 240.46 377.999 240.373 377.897 240.306C377.795 240.239 377.68 240.193 377.56 240.17V240.17Z" fill="#263238"/>
<path d="M346.45 240.68L375.05 246.37C375.171 246.395 375.297 246.395 375.418 246.372C375.54 246.348 375.656 246.3 375.759 246.231C375.862 246.162 375.951 246.074 376.019 245.971C376.088 245.868 376.136 245.752 376.16 245.63V245.63C376.184 245.509 376.185 245.385 376.161 245.264C376.137 245.143 376.089 245.028 376.02 244.925C375.951 244.823 375.863 244.735 375.76 244.667C375.657 244.599 375.541 244.553 375.42 244.53L346.81 238.84C346.567 238.793 346.316 238.843 346.11 238.98C345.904 239.116 345.76 239.328 345.71 239.57V239.57C345.685 239.692 345.685 239.817 345.708 239.939C345.732 240.06 345.78 240.176 345.849 240.279C345.918 240.382 346.006 240.471 346.109 240.54C346.212 240.609 346.328 240.656 346.45 240.68V240.68Z" fill="#263238"/>
<path d="M376.47 250.48C376.505 250.236 376.449 249.988 376.312 249.783C376.175 249.579 375.968 249.431 375.73 249.37L345.9 243.44C345.662 243.406 345.421 243.465 345.225 243.603C345.029 243.742 344.894 243.95 344.847 244.185C344.8 244.421 344.844 244.665 344.971 244.868C345.098 245.072 345.298 245.219 345.53 245.28L375.36 251.21C375.602 251.245 375.849 251.19 376.054 251.056C376.258 250.921 376.406 250.716 376.47 250.48V250.48Z" fill="#263238"/>
<g opacity="0.5">
<path d="M381.53 226.61L354.44 221.22C354.197 221.173 353.946 221.223 353.74 221.359C353.534 221.496 353.391 221.708 353.34 221.95V221.95C353.315 222.072 353.315 222.197 353.339 222.318C353.362 222.44 353.41 222.556 353.479 222.659C353.548 222.762 353.636 222.851 353.739 222.92C353.843 222.988 353.958 223.036 354.08 223.06L381.17 228.45C381.291 228.475 381.415 228.475 381.536 228.451C381.658 228.427 381.773 228.379 381.875 228.31C381.977 228.242 382.065 228.153 382.133 228.05C382.201 227.947 382.247 227.831 382.27 227.71C382.295 227.589 382.295 227.465 382.271 227.343C382.247 227.222 382.199 227.107 382.13 227.005C382.061 226.903 381.973 226.815 381.87 226.747C381.767 226.679 381.651 226.633 381.53 226.61Z" fill="white"/>
<path d="M349.19 226.87L376.57 232.32C376.692 232.345 376.817 232.345 376.938 232.322C377.06 232.298 377.176 232.25 377.279 232.181C377.382 232.112 377.471 232.024 377.54 231.921C377.608 231.818 377.656 231.702 377.68 231.58V231.58C377.705 231.459 377.705 231.335 377.681 231.214C377.657 231.093 377.609 230.978 377.54 230.875C377.472 230.773 377.383 230.685 377.28 230.617C377.177 230.55 377.061 230.503 376.94 230.48L349.56 225C349.439 224.976 349.315 224.975 349.193 224.999C349.072 225.023 348.957 225.071 348.855 225.14C348.753 225.209 348.665 225.297 348.597 225.4C348.529 225.503 348.483 225.619 348.46 225.74C348.432 225.862 348.429 225.989 348.451 226.112C348.473 226.236 348.519 226.354 348.587 226.459C348.655 226.564 348.743 226.655 348.847 226.726C348.951 226.796 349.067 226.845 349.19 226.87V226.87Z" fill="white"/>
<path d="M377.25 235.32L348.64 229.63C348.396 229.583 348.143 229.634 347.937 229.773C347.731 229.912 347.588 230.126 347.54 230.37V230.37C347.515 230.491 347.515 230.615 347.539 230.736C347.563 230.857 347.611 230.972 347.68 231.075C347.748 231.177 347.837 231.265 347.94 231.333C348.043 231.4 348.159 231.447 348.28 231.47L376.88 237.16C377.122 237.195 377.369 237.14 377.574 237.006C377.778 236.871 377.926 236.666 377.99 236.43V236.43C378.015 236.308 378.015 236.183 377.991 236.061C377.968 235.94 377.92 235.824 377.851 235.721C377.782 235.618 377.694 235.529 377.591 235.46C377.487 235.391 377.372 235.344 377.25 235.32V235.32Z" fill="white"/>
<path d="M377.56 240.17L351.69 235C351.446 234.953 351.193 235.004 350.987 235.143C350.781 235.282 350.638 235.496 350.59 235.74V235.74C350.565 235.861 350.565 235.985 350.589 236.106C350.613 236.227 350.661 236.343 350.729 236.445C350.798 236.547 350.887 236.635 350.99 236.703C351.093 236.771 351.209 236.817 351.33 236.84L377.2 242C377.444 242.047 377.696 241.996 377.903 241.857C378.109 241.718 378.251 241.504 378.3 241.26V241.26C378.323 241.14 378.322 241.016 378.298 240.896C378.273 240.776 378.225 240.663 378.156 240.561C378.087 240.46 377.999 240.373 377.897 240.306C377.795 240.239 377.68 240.193 377.56 240.17V240.17Z" fill="white"/>
<path d="M346.45 240.68L375.05 246.37C375.171 246.395 375.297 246.395 375.418 246.372C375.54 246.348 375.656 246.3 375.759 246.231C375.862 246.162 375.951 246.074 376.019 245.971C376.088 245.868 376.136 245.752 376.16 245.63V245.63C376.184 245.509 376.185 245.385 376.161 245.264C376.137 245.143 376.089 245.028 376.02 244.925C375.951 244.823 375.863 244.735 375.76 244.667C375.657 244.599 375.541 244.553 375.42 244.53L346.81 238.84C346.567 238.793 346.316 238.843 346.11 238.98C345.904 239.116 345.76 239.328 345.71 239.57V239.57C345.685 239.692 345.685 239.817 345.708 239.939C345.732 240.06 345.78 240.176 345.849 240.279C345.918 240.382 346.006 240.471 346.109 240.54C346.212 240.609 346.328 240.656 346.45 240.68V240.68Z" fill="white"/>
<path d="M376.47 250.48C376.505 250.236 376.449 249.988 376.312 249.783C376.175 249.579 375.968 249.431 375.73 249.37L345.9 243.44C345.662 243.406 345.421 243.465 345.225 243.603C345.029 243.742 344.894 243.95 344.847 244.185C344.8 244.421 344.844 244.665 344.971 244.868C345.098 245.072 345.298 245.219 345.53 245.28L375.36 251.21C375.602 251.245 375.849 251.19 376.054 251.056C376.258 250.921 376.406 250.716 376.47 250.48V250.48Z" fill="white"/>
</g>
<path d="M389.13 214.14C387.743 212.75 385.981 211.795 384.059 211.391C382.138 210.988 380.14 211.154 378.311 211.869C376.482 212.584 374.902 213.817 373.764 215.417C372.626 217.017 371.979 218.915 371.903 220.877C371.828 222.839 372.326 224.781 373.338 226.464C374.349 228.147 375.83 229.498 377.598 230.352C379.367 231.206 381.346 231.525 383.293 231.271C385.24 231.017 387.07 230.2 388.56 228.92C388.353 229.347 388.284 229.828 388.362 230.296C388.441 230.764 388.664 231.195 389 231.53L395.64 238.17C396.077 238.573 396.652 238.791 397.246 238.779C397.839 238.767 398.405 238.525 398.825 238.106C399.245 237.686 399.486 237.12 399.498 236.526C399.51 235.932 399.292 235.357 398.89 234.92L392.25 228.28C391.912 227.949 391.48 227.73 391.013 227.653C390.546 227.576 390.066 227.645 389.64 227.85C391.295 225.92 392.161 223.436 392.066 220.896C391.972 218.355 390.923 215.943 389.13 214.14V214.14ZM387.71 227C386.579 228.132 385.137 228.902 383.568 229.215C381.998 229.527 380.372 229.367 378.893 228.755C377.415 228.142 376.151 227.105 375.262 225.775C374.373 224.445 373.899 222.88 373.899 221.28C373.899 219.68 374.373 218.116 375.262 216.786C376.151 215.455 377.415 214.418 378.893 213.806C380.372 213.194 381.998 213.034 383.568 213.346C385.137 213.658 386.579 214.429 387.71 215.56C389.227 217.077 390.079 219.135 390.079 221.28C390.079 223.426 389.227 225.483 387.71 227V227Z" fill="#263238"/>
<path d="M387.36 156.55C386.45 156.55 385.52 156.55 384.6 156.47L384.66 155.47C386.659 155.592 388.663 155.575 390.66 155.42L390.74 156.42C389.65 156.51 388.5 156.55 387.36 156.55ZM380.5 156C378.47 155.689 376.465 155.235 374.5 154.64L374.79 153.64C376.715 154.227 378.68 154.671 380.67 154.97L380.5 156ZM394.86 155.88L394.68 154.88C396.662 154.527 398.615 154.022 400.52 153.37L400.94 154.28H400.84C398.893 154.979 396.893 155.52 394.86 155.9V155.88ZM370.59 153.26C368.681 152.473 366.838 151.533 365.08 150.45L365.6 149.6C367.315 150.65 369.111 151.563 370.97 152.33L370.59 153.26ZM404.75 152.72L404.31 151.83C406.113 150.956 407.825 149.904 409.42 148.69L410.03 149.48C408.382 150.739 406.614 151.831 404.75 152.74V152.72ZM361.69 148.08C360.069 146.793 358.581 145.346 357.25 143.76L358.01 143.12C359.303 144.654 360.747 146.054 362.32 147.3L361.69 148.08ZM413.13 146.74L412.41 146.04C413.804 144.607 415.035 143.024 416.08 141.32L416.93 141.84C415.848 143.615 414.574 145.265 413.13 146.76V146.74ZM354.83 140.4C353.85 138.794 353.045 137.088 352.43 135.31L352.25 134.76L353.19 134.44L353.38 134.99C353.97 136.697 354.741 138.337 355.68 139.88L354.83 140.4ZM418.83 138.15L417.91 137.76C418.691 135.916 419.277 133.996 419.66 132.03L420.66 132.22C420.259 134.263 419.643 136.258 418.82 138.17L418.83 138.15ZM351.16 130.78C350.714 128.763 350.433 126.713 350.32 124.65H351.32C351.43 126.669 351.705 128.676 352.14 130.65L351.16 130.78ZM421.16 128.12L420.16 128.05C420.21 127.26 420.24 126.46 420.24 125.66C420.24 124.47 420.18 123.25 420.06 122.04L421.06 121.94C421.188 123.176 421.251 124.418 421.25 125.66C421.26 126.5 421.23 127.33 421.18 128.14L421.16 128.12ZM351.31 120.59L350.31 120.52C350.454 118.454 350.789 116.405 351.31 114.4L352.31 114.65C351.798 116.602 351.47 118.597 351.33 120.61L351.31 120.59ZM419.45 118.06C419.078 116.229 418.584 114.425 417.97 112.66L417.82 112.26L418.76 111.91L418.91 112.33C419.536 114.139 420.043 115.986 420.43 117.86L419.45 118.06ZM353.45 110.85L352.52 110.47C353.298 108.553 354.27 106.72 355.42 105L356.25 105.55C355.156 107.225 354.238 109.007 353.51 110.87L353.45 110.85ZM416.14 108.62C415.178 106.866 414.031 105.22 412.72 103.71L413.47 103.05C414.834 104.614 416.024 106.32 417.02 108.14L416.14 108.62ZM358.71 102.4L357.97 101.73C359.357 100.193 360.899 98.8028 362.57 97.5801L363.16 98.3801C361.563 99.5744 360.092 100.928 358.77 102.42L358.71 102.4ZM410 100.89C408.491 99.5643 406.864 98.3793 405.14 97.3501L405.66 96.4901C407.431 97.5561 409.105 98.7776 410.66 100.14L410 100.89ZM366.6 96.2501L366.12 95.3801C367.857 94.4238 369.673 93.6208 371.55 92.9801L371.78 92.9001L372.1 93.8401L371.88 93.9201C370.058 94.5478 368.292 95.3272 366.6 96.2501V96.2501ZM401.54 95.4801C399.709 94.6413 397.817 93.9426 395.88 93.3901L396.16 92.3901C398.145 92.9548 400.084 93.6702 401.96 94.5301L401.54 95.4801ZM376 92.7701L375.79 91.7701C377.804 91.3216 379.85 91.0308 381.91 90.9001L381.97 91.9001C379.96 92.032 377.964 92.323 376 92.7701V92.7701ZM392 92.4901C390.018 92.1316 388.013 91.9177 386 91.8501V90.8501C388.059 90.9215 390.111 91.1387 392.14 91.5001L392 92.4901Z" fill="#407BFF"/>
<path d="M337.67 151.71H335.67V150.71C337.77 150.71 339.73 150.71 341.67 150.64V151.64C340.41 151.67 339.05 151.71 337.67 151.71ZM345.73 151.3L345.62 150.3C347.592 150.095 349.551 149.785 351.49 149.37L351.7 150.37C349.728 150.785 347.735 151.095 345.73 151.3V151.3ZM355.61 149.3L355.31 148.35C357.188 147.816 358.984 147.029 360.65 146.01L361.23 146.82C359.487 147.92 357.594 148.762 355.61 149.32V149.3Z" fill="#407BFF"/>
<g opacity="0.3">
<path d="M387.36 156.55C386.45 156.55 385.52 156.55 384.6 156.47L384.66 155.47C386.659 155.592 388.663 155.575 390.66 155.42L390.74 156.42C389.65 156.51 388.5 156.55 387.36 156.55ZM380.5 156C378.47 155.689 376.465 155.235 374.5 154.64L374.79 153.64C376.715 154.227 378.68 154.671 380.67 154.97L380.5 156ZM394.86 155.88L394.68 154.88C396.662 154.527 398.615 154.022 400.52 153.37L400.94 154.28H400.84C398.893 154.979 396.893 155.52 394.86 155.9V155.88ZM370.59 153.26C368.681 152.473 366.838 151.533 365.08 150.45L365.6 149.6C367.315 150.65 369.111 151.563 370.97 152.33L370.59 153.26ZM404.75 152.72L404.31 151.83C406.113 150.956 407.825 149.904 409.42 148.69L410.03 149.48C408.382 150.739 406.614 151.831 404.75 152.74V152.72ZM361.69 148.08C360.069 146.793 358.581 145.346 357.25 143.76L358.01 143.12C359.303 144.654 360.747 146.054 362.32 147.3L361.69 148.08ZM413.13 146.74L412.41 146.04C413.804 144.607 415.035 143.024 416.08 141.32L416.93 141.84C415.848 143.615 414.574 145.265 413.13 146.76V146.74ZM354.83 140.4C353.85 138.794 353.045 137.088 352.43 135.31L352.25 134.76L353.19 134.44L353.38 134.99C353.97 136.697 354.741 138.337 355.68 139.88L354.83 140.4ZM418.83 138.15L417.91 137.76C418.691 135.916 419.277 133.996 419.66 132.03L420.66 132.22C420.259 134.263 419.643 136.258 418.82 138.17L418.83 138.15ZM351.16 130.78C350.714 128.763 350.433 126.713 350.32 124.65H351.32C351.43 126.669 351.705 128.676 352.14 130.65L351.16 130.78ZM421.16 128.12L420.16 128.05C420.21 127.26 420.24 126.46 420.24 125.66C420.24 124.47 420.18 123.25 420.06 122.04L421.06 121.94C421.188 123.176 421.251 124.418 421.25 125.66C421.26 126.5 421.23 127.33 421.18 128.14L421.16 128.12ZM351.31 120.59L350.31 120.52C350.454 118.454 350.789 116.405 351.31 114.4L352.31 114.65C351.798 116.602 351.47 118.597 351.33 120.61L351.31 120.59ZM419.45 118.06C419.078 116.229 418.584 114.425 417.97 112.66L417.82 112.26L418.76 111.91L418.91 112.33C419.536 114.139 420.043 115.986 420.43 117.86L419.45 118.06ZM353.45 110.85L352.52 110.47C353.298 108.553 354.27 106.72 355.42 105L356.25 105.55C355.156 107.225 354.238 109.007 353.51 110.87L353.45 110.85ZM416.14 108.62C415.178 106.866 414.031 105.22 412.72 103.71L413.47 103.05C414.834 104.614 416.024 106.32 417.02 108.14L416.14 108.62ZM358.71 102.4L357.97 101.73C359.357 100.193 360.899 98.8028 362.57 97.5801L363.16 98.3801C361.563 99.5744 360.092 100.928 358.77 102.42L358.71 102.4ZM410 100.89C408.491 99.5643 406.864 98.3793 405.14 97.3501L405.66 96.4901C407.431 97.5561 409.105 98.7776 410.66 100.14L410 100.89ZM366.6 96.2501L366.12 95.3801C367.857 94.4238 369.673 93.6208 371.55 92.9801L371.78 92.9001L372.1 93.8401L371.88 93.9201C370.058 94.5478 368.292 95.3272 366.6 96.2501V96.2501ZM401.54 95.4801C399.709 94.6413 397.817 93.9426 395.88 93.3901L396.16 92.3901C398.145 92.9548 400.084 93.6702 401.96 94.5301L401.54 95.4801ZM376 92.7701L375.79 91.7701C377.804 91.3216 379.85 91.0308 381.91 90.9001L381.97 91.9001C379.96 92.032 377.964 92.323 376 92.7701V92.7701ZM392 92.4901C390.018 92.1316 388.013 91.9177 386 91.8501V90.8501C388.059 90.9215 390.111 91.1387 392.14 91.5001L392 92.4901Z" fill="black"/>
<path d="M337.67 151.71H335.67V150.71C337.77 150.71 339.73 150.71 341.67 150.64V151.64C340.41 151.67 339.05 151.71 337.67 151.71ZM345.73 151.3L345.62 150.3C347.592 150.095 349.551 149.785 351.49 149.37L351.7 150.37C349.728 150.785 347.735 151.095 345.73 151.3V151.3ZM355.61 149.3L355.31 148.35C357.188 147.816 358.984 147.029 360.65 146.01L361.23 146.82C359.487 147.92 357.594 148.762 355.61 149.32V149.3Z" fill="black"/>
</g>
<path d="M383.095 97.726L351.692 110.733L360.666 132.398L392.069 119.391L383.095 97.726Z" fill="#407BFF"/>
<path opacity="0.6" d="M383.095 97.726L351.692 110.733L360.666 132.398L392.069 119.391L383.095 97.726Z" fill="white"/>
<path d="M361.96 131.74L365.78 118.02L378.18 125.02L361.96 131.74Z" fill="#407BFF"/>
<path opacity="0.3" d="M361.96 131.74L365.78 118.02L378.18 125.02L361.96 131.74Z" fill="white"/>
<path d="M368.81 128.9L374.06 110.06L391.09 119.67L368.81 128.9Z" fill="#407BFF"/>
<path opacity="0.6" d="M365 112.16C365.219 112.692 365.276 113.277 365.163 113.842C365.05 114.406 364.772 114.924 364.365 115.33C363.957 115.737 363.438 116.013 362.874 116.125C362.309 116.236 361.724 116.178 361.193 115.957C360.661 115.736 360.207 115.362 359.888 114.883C359.569 114.405 359.399 113.842 359.4 113.266C359.401 112.691 359.572 112.128 359.892 111.65C360.213 111.172 360.668 110.8 361.2 110.58C361.553 110.433 361.932 110.357 362.314 110.357C362.697 110.357 363.076 110.432 363.429 110.579C363.782 110.726 364.103 110.941 364.372 111.213C364.642 111.484 364.855 111.806 365 112.16V112.16Z" fill="white"/>
<path d="M410.074 132.629L383.112 127.266L379.411 145.872L406.373 151.235L410.074 132.629Z" fill="#407BFF"/>
<path opacity="0.6" d="M410.074 132.629L383.112 127.266L379.411 145.872L406.373 151.235L410.074 132.629Z" fill="white"/>
<path d="M380.58 146.01L389.32 138.5L394.51 148.78L380.58 146.01Z" fill="#407BFF"/>
<path opacity="0.3" d="M380.58 146.01L389.32 138.5L394.51 148.78L380.58 146.01Z" fill="white"/>
<path d="M386.47 147.18L398.46 136.86L405.59 150.98L386.47 147.18Z" fill="#407BFF"/>
<path opacity="0.6" d="M391.45 134.22C391.407 134.54 391.299 134.847 391.133 135.123C390.966 135.399 390.745 135.638 390.483 135.826C390.22 136.013 389.922 136.145 389.607 136.212C389.292 136.28 388.966 136.283 388.65 136.22C388.334 136.157 388.034 136.03 387.769 135.846C387.504 135.663 387.279 135.427 387.108 135.154C386.938 134.88 386.825 134.574 386.777 134.256C386.729 133.937 386.747 133.612 386.83 133.3C386.873 132.981 386.981 132.673 387.147 132.397C387.314 132.121 387.535 131.882 387.797 131.694C388.059 131.507 388.357 131.375 388.673 131.308C388.988 131.24 389.314 131.237 389.63 131.3C389.946 131.363 390.246 131.49 390.511 131.674C390.776 131.857 391.001 132.093 391.171 132.366C391.342 132.64 391.455 132.946 391.503 133.264C391.55 133.583 391.533 133.908 391.45 134.22V134.22Z" fill="white"/>
<path d="M147 257.46C146 257.46 145.06 257.46 144.08 257.37L144.15 256.37C146.148 256.506 148.152 256.506 150.15 256.37L150.23 257.37C149.11 257.42 148 257.46 147 257.46ZM140 256.91C137.971 256.596 135.966 256.142 134 255.55L134.29 254.55C136.201 255.127 138.149 255.575 140.12 255.89L140 256.91ZM154.21 256.84L154.04 255.84C156.002 255.496 157.934 255.001 159.82 254.36H159.91L160.23 255.31H160.15C158.214 255.978 156.228 256.49 154.21 256.84V256.84ZM130.21 254.19C128.317 253.423 126.485 252.513 124.73 251.47L125.24 250.61C126.956 251.626 128.744 252.515 130.59 253.27L130.21 254.19ZM164.02 253.72L163.58 252.82C165.366 251.96 167.058 250.917 168.63 249.71L169.24 250.5C167.605 251.745 165.85 252.824 164 253.72H164.02ZM121.34 249.19C119.704 247.958 118.181 246.582 116.79 245.08L117.53 244.4C118.877 245.863 120.353 247.202 121.94 248.4L121.34 249.19ZM172.34 247.77L171.62 247.08C172.998 245.658 174.215 244.088 175.25 242.4L176.11 242.92C175.021 244.671 173.743 246.297 172.3 247.77H172.34ZM114.25 241.9C113.062 240.225 112.056 238.428 111.25 236.54L112.17 236.15C112.946 237.969 113.911 239.702 115.05 241.32L114.25 241.9ZM178 239.29L177.08 238.89C177.864 237.066 178.47 235.17 178.89 233.23L179.89 233.44C179.45 235.446 178.817 237.405 178 239.29V239.29ZM109.9 232.69C109.316 230.724 108.875 228.719 108.58 226.69L109.58 226.54C109.87 228.512 110.301 230.46 110.87 232.37L109.9 232.69ZM180.49 229.4L179.49 229.31C179.6 228.18 179.65 227.02 179.65 225.86C179.65 225.02 179.65 224.18 179.57 223.35L180.57 223.28C180.62 224.14 180.65 225 180.65 225.86C180.61 227.05 180.56 228.24 180.45 229.4H180.49ZM108.19 222.65C108.19 222.07 108.19 221.49 108.19 220.91C108.191 219.449 108.277 217.99 108.45 216.54L109.45 216.65C109.281 218.064 109.198 219.486 109.2 220.91C109.2 221.47 109.2 222.04 109.2 222.61L108.19 222.65ZM179.12 219.39C178.802 217.423 178.354 215.478 177.78 213.57L178.78 213.28C179.363 215.232 179.821 217.219 180.15 219.23L179.12 219.39ZM110.12 212.74L109.12 212.51C109.601 210.517 110.27 208.575 111.12 206.71L112.03 207.12C111.192 208.925 110.532 210.807 110.06 212.74H110.12ZM176.48 209.82C175.705 207.993 174.75 206.248 173.63 204.61L174.45 204.04C175.632 205.729 176.637 207.535 177.45 209.43L176.48 209.82ZM113.91 203.63L113.06 203.1C114.148 201.362 115.412 199.741 116.83 198.26L117.55 198.95C116.157 200.377 114.917 201.945 113.85 203.63H113.91ZM171.19 201.49C169.866 200.005 168.41 198.643 166.84 197.42L167.46 196.64C169.072 197.897 170.568 199.296 171.93 200.82L171.19 201.49ZM120.48 196.29L119.86 195.5C121.471 194.233 123.203 193.128 125.03 192.2L125.48 193.09C123.693 193.99 121.999 195.062 120.42 196.29H120.48ZM163.58 195.15C161.887 194.104 160.115 193.191 158.28 192.42L158.67 191.5C160.553 192.29 162.372 193.227 164.11 194.3L163.58 195.15ZM129.12 191.49L128.77 190.55L129.52 190.29C131.201 189.706 132.922 189.245 134.67 188.91L134.86 189.91C133.164 190.238 131.493 190.686 129.86 191.25L129.12 191.49ZM154.54 191.05C152.635 190.459 150.69 190.008 148.72 189.7L148.88 188.7C150.911 189.015 152.917 189.48 154.88 190.09L154.54 191.05ZM138.8 189.34L138.71 188.34C139.89 188.24 141.09 188.19 142.28 188.19C143.16 188.19 143.98 188.19 144.83 188.27L144.76 189.27C143.94 189.27 143.11 189.19 142.28 189.2C141.06 189.19 139.89 189.24 138.74 189.34H138.8Z" fill="#407BFF"/>
<path d="M166.18 194.84L165.73 193.95C165.73 193.95 167.73 192.95 170.86 190.95L171.4 191.79C168.21 193.81 166.26 194.8 166.18 194.84ZM174.74 189.53L174.17 188.71C175.77 187.59 177.39 186.39 178.97 185.15L179.58 185.94C178 187.19 176.36 188.4 174.74 189.53ZM182.74 183.41L182.1 182.64C183.62 181.37 185.1 180.03 186.57 178.64L187.25 179.37C185.75 180.77 184.23 182.12 182.7 183.41H182.74ZM190.14 176.61L189.43 175.91C190.84 174.49 192.22 173.03 193.54 171.56L194.28 172.23C192.92 173.71 191.52 175.19 190.1 176.61H190.14Z" fill="#407BFF"/>
<g opacity="0.3">
<path d="M147 257.46C146 257.46 145.06 257.46 144.08 257.37L144.15 256.37C146.148 256.506 148.152 256.506 150.15 256.37L150.23 257.37C149.11 257.42 148 257.46 147 257.46ZM140 256.91C137.971 256.596 135.966 256.142 134 255.55L134.29 254.55C136.201 255.127 138.149 255.575 140.12 255.89L140 256.91ZM154.21 256.84L154.04 255.84C156.002 255.496 157.934 255.001 159.82 254.36H159.91L160.23 255.31H160.15C158.214 255.978 156.228 256.49 154.21 256.84V256.84ZM130.21 254.19C128.317 253.423 126.485 252.513 124.73 251.47L125.24 250.61C126.956 251.626 128.744 252.515 130.59 253.27L130.21 254.19ZM164.02 253.72L163.58 252.82C165.366 251.96 167.058 250.917 168.63 249.71L169.24 250.5C167.605 251.745 165.85 252.824 164 253.72H164.02ZM121.34 249.19C119.704 247.958 118.181 246.582 116.79 245.08L117.53 244.4C118.877 245.863 120.353 247.202 121.94 248.4L121.34 249.19ZM172.34 247.77L171.62 247.08C172.998 245.658 174.215 244.088 175.25 242.4L176.11 242.92C175.021 244.671 173.743 246.297 172.3 247.77H172.34ZM114.25 241.9C113.062 240.225 112.056 238.428 111.25 236.54L112.17 236.15C112.946 237.969 113.911 239.702 115.05 241.32L114.25 241.9ZM178 239.29L177.08 238.89C177.864 237.066 178.47 235.17 178.89 233.23L179.89 233.44C179.45 235.446 178.817 237.405 178 239.29V239.29ZM109.9 232.69C109.316 230.724 108.875 228.719 108.58 226.69L109.58 226.54C109.87 228.512 110.301 230.46 110.87 232.37L109.9 232.69ZM180.49 229.4L179.49 229.31C179.6 228.18 179.65 227.02 179.65 225.86C179.65 225.02 179.65 224.18 179.57 223.35L180.57 223.28C180.62 224.14 180.65 225 180.65 225.86C180.61 227.05 180.56 228.24 180.45 229.4H180.49ZM108.19 222.65C108.19 222.07 108.19 221.49 108.19 220.91C108.191 219.449 108.277 217.99 108.45 216.54L109.45 216.65C109.281 218.064 109.198 219.486 109.2 220.91C109.2 221.47 109.2 222.04 109.2 222.61L108.19 222.65ZM179.12 219.39C178.802 217.423 178.354 215.478 177.78 213.57L178.78 213.28C179.363 215.232 179.821 217.219 180.15 219.23L179.12 219.39ZM110.12 212.74L109.12 212.51C109.601 210.517 110.27 208.575 111.12 206.71L112.03 207.12C111.192 208.925 110.532 210.807 110.06 212.74H110.12ZM176.48 209.82C175.705 207.993 174.75 206.248 173.63 204.61L174.45 204.04C175.632 205.729 176.637 207.535 177.45 209.43L176.48 209.82ZM113.91 203.63L113.06 203.1C114.148 201.362 115.412 199.741 116.83 198.26L117.55 198.95C116.157 200.377 114.917 201.945 113.85 203.63H113.91ZM171.19 201.49C169.866 200.005 168.41 198.643 166.84 197.42L167.46 196.64C169.072 197.897 170.568 199.296 171.93 200.82L171.19 201.49ZM120.48 196.29L119.86 195.5C121.471 194.233 123.203 193.128 125.03 192.2L125.48 193.09C123.693 193.99 121.999 195.062 120.42 196.29H120.48ZM163.58 195.15C161.887 194.104 160.115 193.191 158.28 192.42L158.67 191.5C160.553 192.29 162.372 193.227 164.11 194.3L163.58 195.15ZM129.12 191.49L128.77 190.55L129.52 190.29C131.201 189.706 132.922 189.245 134.67 188.91L134.86 189.91C133.164 190.238 131.493 190.686 129.86 191.25L129.12 191.49ZM154.54 191.05C152.635 190.459 150.69 190.008 148.72 189.7L148.88 188.7C150.911 189.015 152.917 189.48 154.88 190.09L154.54 191.05ZM138.8 189.34L138.71 188.34C139.89 188.24 141.09 188.19 142.28 188.19C143.16 188.19 143.98 188.19 144.83 188.27L144.76 189.27C143.94 189.27 143.11 189.19 142.28 189.2C141.06 189.19 139.89 189.24 138.74 189.34H138.8Z" fill="black"/>
<path d="M166.18 194.84L165.73 193.95C165.73 193.95 167.73 192.95 170.86 190.95L171.4 191.79C168.21 193.81 166.26 194.8 166.18 194.84ZM174.74 189.53L174.17 188.71C175.77 187.59 177.39 186.39 178.97 185.15L179.58 185.94C178 187.19 176.36 188.4 174.74 189.53ZM182.74 183.41L182.1 182.64C183.62 181.37 185.1 180.03 186.57 178.64L187.25 179.37C185.75 180.77 184.23 182.12 182.7 183.41H182.74ZM190.14 176.61L189.43 175.91C190.84 174.49 192.22 173.03 193.54 171.56L194.28 172.23C192.92 173.71 191.52 175.19 190.1 176.61H190.14Z" fill="black"/>
</g>
<path d="M123.87 222.99H117.58V229.28H123.87V222.99Z" fill="#407BFF"/>
<path d="M136.45 216.7H130.16V229.28H136.45V216.7Z" fill="#407BFF"/>
<path d="M149.03 211.12H142.74V229.28H149.03V211.12Z" fill="#407BFF"/>
<path d="M161.61 205.4H155.32V229.28H161.61V205.4Z" fill="#407BFF"/>
<path opacity="0.5" d="M136.45 216.7H130.16V229.28H136.45V216.7Z" fill="white"/>
<path opacity="0.5" d="M161.61 205.4H155.32V229.28H161.61V205.4Z" fill="white"/>
<path d="M166.12 233.65H117.58V232.4H164.86V205.4H166.12V233.65Z" fill="#407BFF"/>
<g opacity="0.5">
<path d="M166.12 233.65H117.58V232.4H164.86V205.4H166.12V233.65Z" fill="white"/>
</g>
<path d="M120.5 163.69C119.39 163.69 118.26 163.64 117.16 163.55L117.24 162.55C119.202 162.735 121.178 162.735 123.14 162.55L123.24 163.55C122.33 163.647 121.415 163.694 120.5 163.69V163.69ZM113.15 163.01C111.154 162.639 109.193 162.097 107.29 161.39L107.64 160.45C109.488 161.139 111.391 161.668 113.33 162.03L113.15 163.01ZM127.25 162.8L126.99 161.8C128.887 161.292 130.724 160.581 132.47 159.68L132.93 160.57C131.122 161.515 129.218 162.262 127.25 162.8V162.8ZM103.58 159.75C101.777 158.806 100.069 157.691 98.4799 156.42L99.1099 155.64C100.642 156.874 102.294 157.953 104.04 158.86L103.58 159.75ZM136.41 158.52L135.84 157.69C137.465 156.57 138.987 155.309 140.39 153.92L141.09 154.64C139.644 156.065 138.078 157.363 136.41 158.52V158.52ZM95.5099 153.64C94.1252 152.145 92.9141 150.498 91.8999 148.73L92.7699 148.23C93.7414 149.949 94.9092 151.55 96.2499 153L95.5099 153.64ZM143.83 151.64L143.05 151.01C144.303 149.481 145.44 147.86 146.45 146.16L147.31 146.67C146.276 148.411 145.112 150.073 143.83 151.64V151.64ZM90.1399 145.06C89.4114 143.161 88.8852 141.19 88.5699 139.18L89.5699 139.02C89.8719 140.962 90.3815 142.867 91.0899 144.7L90.1399 145.06ZM149.19 143.06L148.29 142.64C149.118 140.847 149.813 138.995 150.37 137.1L151.37 137.38C150.792 139.334 150.063 141.239 149.19 143.08V143.06ZM88.1899 135.06C88.1899 134.82 88.1899 134.58 88.1899 134.33C88.1944 132.545 88.3381 130.763 88.6199 129L89.6199 129.15C89.3419 130.863 89.2014 132.595 89.1999 134.33C89.1999 134.57 89.1999 134.8 89.1999 135.04L88.1899 135.06ZM152.19 133.39L151.19 133.21C151.538 131.269 151.715 129.302 151.72 127.33V127.22H152.72V127.33C152.744 129.383 152.587 131.435 152.25 133.46L152.19 133.39ZM90.3999 125.3L89.3999 125.03C89.946 123.078 90.6448 121.172 91.4899 119.33L92.3999 119.75C91.6065 121.57 90.9578 123.449 90.4599 125.37L90.3999 125.3ZM151.46 123.3C151.199 121.354 150.722 119.442 150.04 117.6L150.97 117.25C151.681 119.159 152.177 121.141 152.45 123.16L151.46 123.3ZM94.2799 116.3L93.4199 115.79C94.4535 114.032 95.6273 112.36 96.9299 110.79L97.6999 111.43C96.449 112.97 95.3253 114.608 94.3399 116.33L94.2799 116.3ZM148.38 114.1C147.402 112.399 146.223 110.821 144.87 109.4L145.6 108.71C147.003 110.19 148.225 111.831 149.24 113.6L148.38 114.1ZM100.38 108.59L99.6899 107.87C101.157 106.465 102.747 105.193 104.44 104.07L104.99 104.9C103.372 106.007 101.853 107.252 100.45 108.62L100.38 108.59ZM142 106.8C140.442 105.6 138.767 104.562 137 103.7L137.45 102.8C139.274 103.698 141.006 104.773 142.62 106.01L142 106.8ZM108.47 103L108.03 102.1C109.857 101.206 111.77 100.499 113.74 99.9901L113.98 100.99C112.079 101.468 110.232 102.142 108.47 103V103ZM133.39 102.22C131.527 101.574 129.614 101.083 127.67 100.75L127.84 99.7501C129.836 100.102 131.802 100.607 133.72 101.26L133.39 102.22ZM117.84 100.28L117.74 99.2801C119.763 99.1052 121.797 99.1052 123.82 99.2801L123.75 100.28C121.785 100.095 119.807 100.085 117.84 100.25V100.28Z" fill="#407BFF"/>
<path d="M169.62 157C167.62 157 165.62 156.83 163.62 156.6L163.74 155.6C165.708 155.836 167.688 155.969 169.67 156L169.62 157ZM173.62 156.93L173.57 155.93C175.545 155.821 177.511 155.598 179.46 155.26L179.64 156.26C177.659 156.61 175.659 156.837 173.65 156.94L173.62 156.93ZM159.59 156C157.59 155.66 155.65 155.22 153.69 154.7L153.95 153.7C155.88 154.21 157.84 154.65 159.77 154.99L159.59 156ZM183.59 155.35L183.33 154.35C184.7 153.98 186.05 153.54 187.33 153.05L187.69 153.98C186.354 154.512 184.992 154.976 183.61 155.37L183.59 155.35ZM149.81 153.56C147.874 152.961 145.977 152.243 144.13 151.41L144.55 150.51C146.362 151.315 148.218 152.016 150.11 152.61L149.81 153.56Z" fill="#407BFF"/>
<g opacity="0.3">
<path d="M120.5 163.69C119.39 163.69 118.26 163.64 117.16 163.55L117.24 162.55C119.202 162.735 121.178 162.735 123.14 162.55L123.24 163.55C122.33 163.647 121.415 163.694 120.5 163.69V163.69ZM113.15 163.01C111.154 162.639 109.193 162.097 107.29 161.39L107.64 160.45C109.488 161.139 111.391 161.668 113.33 162.03L113.15 163.01ZM127.25 162.8L126.99 161.8C128.887 161.292 130.724 160.581 132.47 159.68L132.93 160.57C131.122 161.515 129.218 162.262 127.25 162.8V162.8ZM103.58 159.75C101.777 158.806 100.069 157.691 98.4799 156.42L99.1099 155.64C100.642 156.874 102.294 157.953 104.04 158.86L103.58 159.75ZM136.41 158.52L135.84 157.69C137.465 156.57 138.987 155.309 140.39 153.92L141.09 154.64C139.644 156.065 138.078 157.363 136.41 158.52V158.52ZM95.5099 153.64C94.1252 152.145 92.9141 150.498 91.8999 148.73L92.7699 148.23C93.7414 149.949 94.9092 151.55 96.2499 153L95.5099 153.64ZM143.83 151.64L143.05 151.01C144.303 149.481 145.44 147.86 146.45 146.16L147.31 146.67C146.276 148.411 145.112 150.073 143.83 151.64V151.64ZM90.1399 145.06C89.4114 143.161 88.8852 141.19 88.5699 139.18L89.5699 139.02C89.8719 140.962 90.3815 142.867 91.0899 144.7L90.1399 145.06ZM149.19 143.06L148.29 142.64C149.118 140.847 149.813 138.995 150.37 137.1L151.37 137.38C150.792 139.334 150.063 141.239 149.19 143.08V143.06ZM88.1899 135.06C88.1899 134.82 88.1899 134.58 88.1899 134.33C88.1944 132.545 88.3381 130.763 88.6199 129L89.6199 129.15C89.3419 130.863 89.2014 132.595 89.1999 134.33C89.1999 134.57 89.1999 134.8 89.1999 135.04L88.1899 135.06ZM152.19 133.39L151.19 133.21C151.538 131.269 151.715 129.302 151.72 127.33V127.22H152.72V127.33C152.744 129.383 152.587 131.435 152.25 133.46L152.19 133.39ZM90.3999 125.3L89.3999 125.03C89.946 123.078 90.6448 121.172 91.4899 119.33L92.3999 119.75C91.6065 121.57 90.9578 123.449 90.4599 125.37L90.3999 125.3ZM151.46 123.3C151.199 121.354 150.722 119.442 150.04 117.6L150.97 117.25C151.681 119.159 152.177 121.141 152.45 123.16L151.46 123.3ZM94.2799 116.3L93.4199 115.79C94.4535 114.032 95.6273 112.36 96.9299 110.79L97.6999 111.43C96.449 112.97 95.3253 114.608 94.3399 116.33L94.2799 116.3ZM148.38 114.1C147.402 112.399 146.223 110.821 144.87 109.4L145.6 108.71C147.003 110.19 148.225 111.831 149.24 113.6L148.38 114.1ZM100.38 108.59L99.6899 107.87C101.157 106.465 102.747 105.193 104.44 104.07L104.99 104.9C103.372 106.007 101.853 107.252 100.45 108.62L100.38 108.59ZM142 106.8C140.442 105.6 138.767 104.562 137 103.7L137.45 102.8C139.274 103.698 141.006 104.773 142.62 106.01L142 106.8ZM108.47 103L108.03 102.1C109.857 101.206 111.77 100.499 113.74 99.9901L113.98 100.99C112.079 101.468 110.232 102.142 108.47 103V103ZM133.39 102.22C131.527 101.574 129.614 101.083 127.67 100.75L127.84 99.7501C129.836 100.102 131.802 100.607 133.72 101.26L133.39 102.22ZM117.84 100.28L117.74 99.2801C119.763 99.1052 121.797 99.1052 123.82 99.2801L123.75 100.28C121.785 100.095 119.807 100.085 117.84 100.25V100.28Z" fill="black"/>
<path d="M169.62 157C167.62 157 165.62 156.83 163.62 156.6L163.74 155.6C165.708 155.836 167.688 155.969 169.67 156L169.62 157ZM173.62 156.93L173.57 155.93C175.545 155.821 177.511 155.598 179.46 155.26L179.64 156.26C177.659 156.61 175.659 156.837 173.65 156.94L173.62 156.93ZM159.59 156C157.59 155.66 155.65 155.22 153.69 154.7L153.95 153.7C155.88 154.21 157.84 154.65 159.77 154.99L159.59 156ZM183.59 155.35L183.33 154.35C184.7 153.98 186.05 153.54 187.33 153.05L187.69 153.98C186.354 154.512 184.992 154.976 183.61 155.37L183.59 155.35ZM149.81 153.56C147.874 152.961 145.977 152.243 144.13 151.41L144.55 150.51C146.362 151.315 148.218 152.016 150.11 152.61L149.81 153.56Z" fill="black"/>
</g>
<path d="M128.25 123.61C128.25 116.42 119.47 110.61 108.63 110.61C97.79 110.61 89 116.42 89 123.61C89 130.8 97.78 136.61 108.62 136.61C110.432 136.611 112.24 136.441 114.02 136.1C115.124 137.326 116.474 138.306 117.981 138.976C119.489 139.646 121.12 139.992 122.77 139.99V139.99C122.998 140.006 123.225 139.943 123.413 139.812C123.601 139.681 123.737 139.489 123.801 139.269C123.864 139.049 123.85 138.814 123.76 138.603C123.671 138.392 123.512 138.218 123.31 138.11C121.818 137.147 120.561 135.863 119.63 134.35C124.85 132 128.25 128.08 128.25 123.61Z" fill="#407BFF"/>
<path d="M99.2098 124.32C99.2118 124.701 99.1007 125.073 98.8904 125.391C98.6802 125.708 98.3805 125.956 98.0292 126.102C97.678 126.249 97.2911 126.288 96.9177 126.214C96.5444 126.14 96.2013 125.957 95.9322 125.688C95.6631 125.419 95.48 125.076 95.4063 124.702C95.3325 124.329 95.3714 123.942 95.5179 123.591C95.6645 123.24 95.9121 122.94 96.2294 122.73C96.5467 122.519 96.9193 122.408 97.2999 122.41C97.8064 122.41 98.2922 122.611 98.6504 122.97C99.0086 123.328 99.2098 123.814 99.2098 124.32V124.32Z" fill="white"/>
<path d="M107 124.32C107.002 124.7 106.891 125.073 106.681 125.39C106.471 125.707 106.172 125.954 105.822 126.101C105.471 126.248 105.085 126.287 104.711 126.214C104.338 126.142 103.995 125.959 103.726 125.691C103.456 125.423 103.272 125.081 103.198 124.708C103.123 124.336 103.16 123.949 103.305 123.598C103.45 123.246 103.696 122.946 104.012 122.734C104.328 122.523 104.7 122.41 105.08 122.41C105.587 122.41 106.074 122.611 106.434 122.969C106.794 123.327 106.997 123.813 107 124.32Z" fill="white"/>
<path d="M114.68 124.32C114.682 124.701 114.571 125.073 114.36 125.391C114.15 125.708 113.85 125.956 113.499 126.102C113.148 126.249 112.761 126.288 112.388 126.214C112.014 126.14 111.671 125.957 111.402 125.688C111.133 125.419 110.95 125.076 110.876 124.702C110.802 124.329 110.841 123.942 110.988 123.591C111.134 123.24 111.382 122.94 111.699 122.73C112.017 122.519 112.389 122.408 112.77 122.41C113.276 122.413 113.76 122.615 114.117 122.973C114.475 123.33 114.677 123.814 114.68 124.32Z" fill="white"/>
<path d="M122.41 124.32C122.41 124.698 122.298 125.067 122.088 125.381C121.878 125.695 121.58 125.94 121.231 126.085C120.882 126.229 120.498 126.267 120.127 126.193C119.757 126.12 119.416 125.938 119.149 125.671C118.882 125.404 118.7 125.063 118.627 124.693C118.553 124.322 118.591 123.938 118.735 123.589C118.88 123.24 119.125 122.942 119.439 122.732C119.753 122.522 120.122 122.41 120.5 122.41C121.006 122.41 121.492 122.611 121.85 122.97C122.209 123.328 122.41 123.814 122.41 124.32V124.32Z" fill="white"/>
<path d="M126.52 135.83C126.52 131.01 132.42 127.09 139.7 127.09C146.98 127.09 152.88 131.01 152.88 135.83C152.88 140.65 146.98 144.57 139.7 144.57C138.482 144.571 137.267 144.458 136.07 144.23C135.329 145.052 134.424 145.709 133.412 146.159C132.401 146.609 131.307 146.841 130.2 146.84V146.84C130.052 146.839 129.909 146.79 129.792 146.7C129.674 146.61 129.589 146.485 129.55 146.342C129.51 146.2 129.518 146.049 129.572 145.911C129.626 145.774 129.724 145.657 129.85 145.58C130.85 144.932 131.69 144.068 132.31 143.05C128.81 141.48 126.52 138.83 126.52 135.83Z" fill="#407BFF"/>
<path opacity="0.6" d="M126.52 135.83C126.52 131.01 132.42 127.09 139.7 127.09C146.98 127.09 152.88 131.01 152.88 135.83C152.88 140.65 146.98 144.57 139.7 144.57C138.482 144.571 137.267 144.458 136.07 144.23C135.329 145.052 134.424 145.709 133.412 146.159C132.401 146.609 131.307 146.841 130.2 146.84V146.84C130.052 146.839 129.909 146.79 129.792 146.7C129.674 146.61 129.589 146.485 129.55 146.342C129.51 146.2 129.518 146.049 129.572 145.911C129.626 145.774 129.724 145.657 129.85 145.58C130.85 144.932 131.69 144.068 132.31 143.05C128.81 141.48 126.52 138.83 126.52 135.83Z" fill="white"/>
<path d="M132.26 135.58C132.26 135.859 132.177 136.132 132.022 136.364C131.866 136.596 131.645 136.777 131.387 136.884C131.129 136.99 130.845 137.017 130.571 136.962C130.297 136.907 130.046 136.772 129.849 136.573C129.653 136.375 129.519 136.123 129.466 135.849C129.413 135.575 129.442 135.291 129.55 135.033C129.658 134.776 129.841 134.556 130.074 134.403C130.307 134.249 130.581 134.168 130.86 134.17C131.045 134.17 131.228 134.206 131.398 134.277C131.569 134.348 131.723 134.452 131.853 134.584C131.984 134.715 132.086 134.87 132.156 135.041C132.226 135.212 132.261 135.395 132.26 135.58Z" fill="#407BFF"/>
<path d="M138 135.58C138 135.859 137.917 136.131 137.762 136.363C137.607 136.595 137.387 136.776 137.13 136.883C136.872 136.989 136.588 137.017 136.315 136.963C136.041 136.908 135.79 136.774 135.593 136.577C135.396 136.38 135.261 136.129 135.207 135.855C135.153 135.581 135.181 135.298 135.287 135.04C135.394 134.783 135.575 134.562 135.807 134.408C136.038 134.253 136.311 134.17 136.59 134.17C136.964 134.17 137.323 134.318 137.587 134.583C137.851 134.847 138 135.206 138 135.58V135.58Z" fill="#407BFF"/>
<path d="M143.63 135.58C143.63 135.859 143.547 136.131 143.392 136.363C143.238 136.595 143.017 136.776 142.76 136.883C142.502 136.989 142.218 137.017 141.945 136.963C141.671 136.908 141.42 136.774 141.223 136.577C141.026 136.38 140.892 136.129 140.837 135.855C140.783 135.581 140.811 135.298 140.917 135.04C141.024 134.783 141.205 134.562 141.437 134.408C141.669 134.253 141.941 134.17 142.22 134.17C142.594 134.17 142.953 134.318 143.217 134.583C143.482 134.847 143.63 135.206 143.63 135.58V135.58Z" fill="#407BFF"/>
<path d="M149.31 135.58C149.31 135.859 149.227 136.132 149.072 136.364C148.916 136.596 148.695 136.777 148.437 136.884C148.179 136.99 147.895 137.017 147.621 136.962C147.347 136.907 147.096 136.772 146.899 136.573C146.703 136.375 146.569 136.123 146.516 135.849C146.463 135.575 146.492 135.291 146.6 135.033C146.708 134.776 146.891 134.556 147.124 134.403C147.357 134.249 147.631 134.168 147.91 134.17C148.095 134.17 148.278 134.206 148.448 134.277C148.619 134.348 148.773 134.452 148.903 134.584C149.034 134.715 149.137 134.87 149.206 135.041C149.276 135.212 149.311 135.395 149.31 135.58Z" fill="#407BFF"/>
<path d="M286.78 218.2L291.1 245L271.19 238.6C271.19 238.6 260.08 200.16 242.48 190.77C242.48 190.77 214.23 191.2 210.06 171.13C210.06 171.13 166.06 179.24 166.06 145.93C166.06 112.62 193.68 75.4702 260.06 75.4702C332.35 75.4702 351.29 146.78 336.93 164.72C336.93 164.72 346.37 196.63 298.2 203.65C290.73 204.74 285.66 211.29 286.78 218.2Z" fill="#407BFF"/>
<path opacity="0.4" d="M286.78 218.2L291.1 245L271.19 238.6C271.19 238.6 260.08 200.16 242.48 190.77C242.48 190.77 214.23 191.2 210.06 171.13C210.06 171.13 166.06 179.24 166.06 145.93C166.06 112.62 193.68 75.4702 260.06 75.4702C332.35 75.4702 351.29 146.78 336.93 164.72C336.93 164.72 346.37 196.63 298.2 203.65C290.73 204.74 285.66 211.29 286.78 218.2Z" fill="white"/>
<path d="M316.92 121.09C317.032 120.184 317.089 119.273 317.09 118.36C317.089 117.451 317.032 116.542 316.92 115.64L311.62 113.75C311.236 112.319 310.668 110.944 309.93 109.66L312.34 104.58C311.216 103.146 309.923 101.854 308.49 100.73L303.41 103.14C302.125 102.404 300.75 101.836 299.32 101.45L297.43 96.1499C295.62 95.9233 293.789 95.9233 291.98 96.1499L290.1 101.45C288.666 101.834 287.288 102.402 286 103.14L280.92 100.73C279.486 101.854 278.193 103.146 277.07 104.58L279.48 109.66C278.746 110.946 278.178 112.321 277.79 113.75L272.49 115.64C272.377 116.542 272.321 117.451 272.32 118.36C272.321 119.273 272.378 120.184 272.49 121.09L277.79 122.97C278.18 124.402 278.748 125.779 279.48 127.07L277.07 132.14C278.193 133.577 279.486 134.873 280.92 136L286 133.58C287.289 134.317 288.667 134.888 290.1 135.28L291.98 140.58C293.789 140.807 295.62 140.807 297.43 140.58L299.32 135.28C300.749 134.886 302.123 134.315 303.41 133.58L308.49 136C309.924 134.873 311.216 133.577 312.34 132.14L309.93 127.07C310.666 125.781 311.234 124.403 311.62 122.97L316.92 121.09ZM294.71 127.72C292.858 127.722 291.048 127.175 289.507 126.147C287.966 125.12 286.765 123.659 286.055 121.949C285.345 120.239 285.158 118.356 285.518 116.54C285.878 114.724 286.769 113.055 288.078 111.745C289.386 110.435 291.054 109.542 292.87 109.181C294.686 108.819 296.569 109.003 298.279 109.711C299.99 110.42 301.453 111.619 302.482 113.159C303.511 114.698 304.06 116.508 304.06 118.36C304.06 120.841 303.075 123.22 301.322 124.975C299.569 126.73 297.191 127.717 294.71 127.72V127.72Z" fill="#263238"/>
<path d="M315.5 155.62C315.593 154.669 315.593 153.711 315.5 152.76L310.69 151.59C310.486 150.876 310.201 150.189 309.84 149.54L312.41 145.32C311.813 144.587 311.143 143.917 310.41 143.32L306.19 145.9C305.541 145.533 304.849 145.248 304.13 145.05L303 140.21C302.525 140.158 302.048 140.131 301.57 140.13C301.092 140.131 300.615 140.158 300.14 140.21L298.92 145C298.205 145.2 297.517 145.485 296.87 145.85L292.64 143.27C291.907 143.866 291.237 144.537 290.64 145.27L293.22 149.49C292.855 150.137 292.57 150.825 292.37 151.54L287.55 152.71C287.55 153.18 287.48 153.71 287.48 154.14C287.48 154.57 287.48 155.14 287.55 155.57L292.37 156.74C292.57 157.455 292.855 158.143 293.22 158.79L290.64 163.01C291.239 163.741 291.909 164.411 292.64 165.01L296.87 162.43C297.519 162.79 298.206 163.076 298.92 163.28L300.09 168.09C300.565 168.142 301.042 168.169 301.52 168.17C301.998 168.168 302.475 168.142 302.95 168.09L304.11 163.28C304.827 163.077 305.519 162.792 306.17 162.43L310.39 165.01C311.121 164.411 311.791 163.741 312.39 163.01L309.82 158.79C310.181 158.141 310.466 157.453 310.67 156.74L315.5 155.62ZM301.5 158.11C300.725 158.11 299.967 157.88 299.322 157.449C298.678 157.018 298.175 156.406 297.878 155.69C297.582 154.974 297.504 154.186 297.655 153.425C297.807 152.665 298.18 151.966 298.728 151.418C299.276 150.87 299.975 150.496 300.735 150.345C301.496 150.194 302.284 150.272 303 150.568C303.716 150.865 304.329 151.367 304.759 152.012C305.19 152.657 305.42 153.415 305.42 154.19C305.42 155.226 305.01 156.22 304.279 156.955C303.548 157.689 302.556 158.105 301.52 158.11H301.5Z" fill="#263238"/>
<path d="M277.31 101.17C277.39 100.392 277.39 99.6079 277.31 98.83L273.38 97.83C273.214 97.2488 272.983 96.6885 272.69 96.16L274.79 92.71C274.296 92.1064 273.744 91.5536 273.14 91.06L269.69 93.16C269.161 92.8671 268.601 92.6356 268.02 92.47L267.02 88.54C266.635 88.4998 266.247 88.4798 265.86 88.48C265.469 88.48 265.079 88.5 264.69 88.54L263.69 92.47C263.106 92.6374 262.543 92.8688 262.01 93.16L258.57 91.06C257.992 91.5734 257.466 92.1428 257 92.76L259.1 96.21C258.807 96.7385 258.576 97.2988 258.41 97.88L254.48 98.88C254.4 99.6579 254.4 100.442 254.48 101.22L258.41 102.22C258.576 102.801 258.807 103.361 259.1 103.89L257 107.34C257.494 107.944 258.046 108.496 258.65 108.99L262.09 106.89C262.623 107.181 263.186 107.413 263.77 107.58L264.77 111.51C265.159 111.55 265.549 111.57 265.94 111.57C266.327 111.57 266.715 111.55 267.1 111.51L268.1 107.58C268.681 107.414 269.241 107.183 269.77 106.89L273.22 108.99C273.824 108.496 274.376 107.944 274.87 107.34L272.77 103.89C273.063 103.361 273.294 102.801 273.46 102.22L277.31 101.17ZM265.9 103.17C265.267 103.17 264.648 102.982 264.122 102.631C263.596 102.279 263.186 101.779 262.943 101.195C262.701 100.61 262.638 99.9664 262.761 99.3457C262.885 98.725 263.19 98.1548 263.637 97.7072C264.085 97.2597 264.655 96.9549 265.276 96.8315C265.896 96.708 266.54 96.7714 267.124 97.0136C267.709 97.2558 268.209 97.6659 268.561 98.1922C268.912 98.7184 269.1 99.3371 269.1 99.97C269.104 100.393 269.024 100.812 268.865 101.204C268.706 101.595 268.471 101.952 268.173 102.252C267.876 102.552 267.522 102.791 267.131 102.954C266.741 103.116 266.323 103.2 265.9 103.2V103.17Z" fill="#263238"/>
<path d="M200.11 137.82L196.73 138.35C195.97 138.473 195.19 138.392 194.471 138.114C193.752 137.837 193.12 137.373 192.64 136.77V136.77L203.51 135.05C203.236 135.769 202.778 136.404 202.181 136.89C201.584 137.376 200.87 137.697 200.11 137.82V137.82Z" fill="#263238"/>
<path d="M202.348 127.705L191.484 129.426L192.466 135.629L203.331 133.908L202.348 127.705Z" fill="#263238"/>
<path d="M209.51 107C209.16 104.782 208.344 102.664 207.117 100.784C205.89 98.904 204.28 97.3047 202.391 96.0912C200.502 94.8777 198.378 94.0774 196.158 93.7428C193.938 93.4082 191.673 93.5468 189.51 94.1497C183.03 95.9197 177.66 103.15 177.86 109.88C177.931 112.523 178.659 115.106 179.979 117.397C181.299 119.687 183.169 121.613 185.42 123C187.926 124.593 189.835 126.969 190.85 129.76C190.928 129.954 191.069 130.117 191.25 130.222C191.432 130.327 191.643 130.368 191.85 130.34L202.07 128.72C202.281 128.684 202.473 128.577 202.615 128.417C202.757 128.257 202.84 128.053 202.85 127.84V127.84C203.002 124.814 204.132 121.919 206.07 119.59C207.502 117.854 208.549 115.835 209.142 113.664C209.735 111.494 209.861 109.222 209.51 107V107Z" fill="#407BFF"/>
<path opacity="0.7" d="M209.51 107C209.16 104.782 208.344 102.664 207.117 100.784C205.89 98.904 204.28 97.3047 202.391 96.0912C200.502 94.8777 198.378 94.0774 196.158 93.7428C193.938 93.4082 191.673 93.5468 189.51 94.1497C183.03 95.9197 177.66 103.15 177.86 109.88C177.931 112.523 178.659 115.106 179.979 117.397C181.299 119.687 183.169 121.613 185.42 123C187.926 124.593 189.835 126.969 190.85 129.76C190.928 129.954 191.069 130.117 191.25 130.222C191.432 130.327 191.643 130.368 191.85 130.34L202.07 128.72C202.281 128.684 202.473 128.577 202.615 128.417C202.757 128.257 202.84 128.053 202.85 127.84V127.84C203.002 124.814 204.132 121.919 206.07 119.59C207.502 117.854 208.549 115.835 209.142 113.664C209.735 111.494 209.861 109.222 209.51 107V107Z" fill="white"/>
<path d="M202.66 132L192.32 133.64C191.962 133.694 191.597 133.605 191.305 133.392C191.012 133.178 190.817 132.857 190.76 132.5V132.5C190.732 132.324 190.738 132.144 190.78 131.97C190.821 131.797 190.897 131.633 191.002 131.489C191.107 131.345 191.239 131.223 191.392 131.131C191.544 131.038 191.714 130.977 191.89 130.95L202.24 129.31C202.416 129.281 202.596 129.288 202.769 129.33C202.943 129.371 203.106 129.447 203.251 129.552C203.395 129.657 203.517 129.789 203.609 129.942C203.702 130.094 203.763 130.263 203.79 130.44C203.845 130.796 203.757 131.16 203.545 131.452C203.334 131.744 203.016 131.941 202.66 132Z" fill="#263238"/>
<path d="M203.19 135.32L192.84 137C192.482 137.054 192.117 136.965 191.825 136.752C191.533 136.538 191.337 136.217 191.28 135.86C191.253 135.683 191.261 135.503 191.304 135.329C191.346 135.156 191.423 134.992 191.529 134.849C191.635 134.705 191.768 134.583 191.921 134.49C192.074 134.398 192.243 134.337 192.42 134.31L202.76 132.67C203.116 132.615 203.48 132.703 203.772 132.914C204.064 133.126 204.261 133.444 204.32 133.8C204.364 134.15 204.27 134.503 204.06 134.786C203.849 135.07 203.538 135.261 203.19 135.32V135.32Z" fill="#263238"/>
<g opacity="0.5">
<path d="M202.66 132L192.32 133.64C191.962 133.694 191.597 133.605 191.305 133.392C191.012 133.178 190.817 132.857 190.76 132.5V132.5C190.732 132.324 190.738 132.144 190.78 131.97C190.821 131.797 190.897 131.633 191.002 131.489C191.107 131.345 191.239 131.223 191.392 131.131C191.544 131.038 191.714 130.977 191.89 130.95L202.24 129.31C202.416 129.281 202.596 129.288 202.769 129.33C202.943 129.371 203.106 129.447 203.251 129.552C203.395 129.657 203.517 129.789 203.609 129.942C203.702 130.094 203.763 130.263 203.79 130.44C203.845 130.796 203.757 131.16 203.545 131.452C203.334 131.744 203.016 131.941 202.66 132Z" fill="white"/>
<path d="M203.19 135.32L192.84 137C192.482 137.054 192.117 136.965 191.825 136.752C191.533 136.538 191.337 136.217 191.28 135.86C191.253 135.683 191.261 135.503 191.304 135.329C191.346 135.156 191.423 134.992 191.529 134.849C191.635 134.705 191.768 134.583 191.921 134.49C192.074 134.398 192.243 134.337 192.42 134.31L202.76 132.67C203.116 132.615 203.48 132.703 203.772 132.914C204.064 133.126 204.261 133.444 204.32 133.8C204.364 134.15 204.27 134.503 204.06 134.786C203.849 135.07 203.538 135.261 203.19 135.32V135.32Z" fill="white"/>
</g>
<path opacity="0.5" d="M203.24 102.54C202.58 105.28 199.9 104.07 196.45 103.22C193 102.37 190.06 102.22 190.73 99.48C191.4 96.74 194.73 95.21 198.2 96.05C201.67 96.89 203.91 99.8 203.24 102.54Z" fill="white"/>
<path d="M184.76 91.6299L182.65 86.5199C182.577 86.3454 182.539 86.158 182.538 85.9687C182.538 85.7793 182.575 85.5918 182.647 85.4169C182.72 85.242 182.826 85.0832 182.961 84.9499C183.095 84.8165 183.255 84.7111 183.43 84.6399C183.605 84.5662 183.793 84.528 183.984 84.5274C184.174 84.5267 184.362 84.5637 184.538 84.6362C184.713 84.7088 184.873 84.8153 185.007 84.9498C185.142 85.0843 185.248 85.2441 185.32 85.4199L187.43 90.5199C187.504 90.6951 187.542 90.8832 187.543 91.0733C187.543 91.2633 187.506 91.4517 187.434 91.6274C187.361 91.8031 187.255 91.9627 187.12 92.097C186.986 92.2313 186.826 92.3376 186.65 92.4099V92.4099C186.296 92.5532 185.899 92.5518 185.546 92.406C185.192 92.2601 184.91 91.9815 184.76 91.6299V91.6299Z" fill="#407BFF"/>
<path d="M211 102.5C210.857 102.145 210.858 101.749 211.004 101.395C211.15 101.042 211.428 100.76 211.78 100.61L216.89 98.4998C217.065 98.4263 217.252 98.3882 217.441 98.3877C217.631 98.3872 217.818 98.4243 217.993 98.4969C218.168 98.5694 218.327 98.676 218.46 98.8104C218.593 98.9448 218.699 99.1044 218.77 99.2798V99.2798C218.844 99.455 218.882 99.6431 218.883 99.8332C218.883 100.023 218.846 100.212 218.774 100.387C218.701 100.563 218.595 100.723 218.46 100.857C218.326 100.991 218.166 101.098 217.99 101.17L212.89 103.28C212.715 103.353 212.527 103.392 212.337 103.392C212.147 103.393 211.958 103.356 211.783 103.283C211.607 103.211 211.447 103.104 211.313 102.97C211.179 102.835 211.072 102.676 211 102.5Z" fill="#407BFF"/>
<path d="M168.79 120C168.716 119.825 168.678 119.636 168.677 119.446C168.677 119.256 168.714 119.068 168.786 118.892C168.859 118.717 168.965 118.557 169.1 118.423C169.234 118.288 169.394 118.182 169.57 118.11L174.67 116C174.845 115.926 175.033 115.888 175.223 115.887C175.413 115.887 175.602 115.924 175.778 115.996C175.953 116.069 176.113 116.175 176.247 116.31C176.381 116.444 176.488 116.604 176.56 116.78V116.78C176.703 117.134 176.702 117.531 176.556 117.884C176.41 118.237 176.132 118.52 175.78 118.67L170.67 120.78C170.496 120.853 170.308 120.891 170.119 120.892C169.929 120.892 169.742 120.855 169.567 120.783C169.392 120.71 169.233 120.604 169.1 120.469C168.967 120.335 168.861 120.175 168.79 120V120Z" fill="#407BFF"/>
<path d="M200.92 92.4099C200.744 92.3376 200.585 92.2313 200.45 92.097C200.316 91.9627 200.209 91.8031 200.136 91.6274C200.064 91.4517 200.027 91.2633 200.028 91.0733C200.028 90.8832 200.066 90.6951 200.14 90.5199L202.25 85.4199C202.322 85.2441 202.429 85.0843 202.563 84.9498C202.697 84.8153 202.857 84.7088 203.033 84.6362C203.208 84.5637 203.397 84.5267 203.587 84.5274C203.777 84.528 203.965 84.5662 204.14 84.6399V84.6399C204.316 84.7111 204.475 84.8165 204.61 84.9499C204.744 85.0832 204.851 85.242 204.923 85.4169C204.996 85.5918 205.033 85.7793 205.032 85.9687C205.032 86.158 204.994 86.3454 204.92 86.5199L202.81 91.6299C202.66 91.9815 202.378 92.2601 202.024 92.406C201.671 92.5518 201.275 92.5532 200.92 92.4099V92.4099Z" fill="#407BFF"/>
<path d="M216.9 120.77L211.79 118.66C211.438 118.51 211.16 118.228 211.014 117.874C210.868 117.521 210.867 117.124 211.01 116.77V116.77C211.082 116.594 211.189 116.434 211.323 116.3C211.457 116.165 211.617 116.059 211.793 115.986C211.968 115.914 212.157 115.877 212.347 115.877C212.537 115.878 212.725 115.916 212.9 115.99L218 118.1C218.176 118.172 218.336 118.279 218.47 118.413C218.605 118.547 218.711 118.707 218.784 118.883C218.856 119.058 218.893 119.247 218.893 119.437C218.892 119.627 218.854 119.815 218.78 119.99V119.99C218.709 120.165 218.603 120.325 218.47 120.459C218.337 120.594 218.178 120.7 218.003 120.773C217.828 120.845 217.641 120.883 217.451 120.882C217.262 120.882 217.075 120.843 216.9 120.77V120.77Z" fill="#407BFF"/>
<path d="M174.67 103.28L169.57 101.17C169.394 101.098 169.234 100.991 169.1 100.857C168.965 100.723 168.859 100.563 168.786 100.387C168.714 100.212 168.677 100.023 168.677 99.8332C168.678 99.6431 168.716 99.455 168.79 99.2798V99.2798C168.861 99.1044 168.967 98.9448 169.1 98.8104C169.233 98.676 169.392 98.5694 169.567 98.4969C169.742 98.4243 169.929 98.3872 170.119 98.3877C170.308 98.3882 170.496 98.4263 170.67 98.4998L175.78 100.61C176.132 100.76 176.41 101.042 176.556 101.395C176.702 101.749 176.703 102.145 176.56 102.5C176.488 102.676 176.381 102.835 176.247 102.97C176.113 103.104 175.953 103.211 175.778 103.283C175.602 103.356 175.413 103.393 175.223 103.392C175.033 103.392 174.845 103.353 174.67 103.28V103.28Z" fill="#407BFF"/>
<path d="M229.25 417.97L222 417.86L221.61 401.03L228.85 401.14L229.25 417.97Z" fill="#FF8B7B"/>
<path d="M221.73 415.66L229.64 415.79C229.782 415.788 229.92 415.838 230.028 415.93C230.137 416.022 230.208 416.15 230.23 416.29L231.23 422.77C231.253 422.93 231.241 423.092 231.196 423.247C231.15 423.401 231.071 423.544 230.964 423.665C230.858 423.785 230.726 423.882 230.578 423.946C230.431 424.011 230.271 424.043 230.11 424.04C227.26 423.95 223.11 423.71 219.55 423.66C215.35 423.59 215.77 423.76 210.85 423.66C207.85 423.61 207.24 420.59 208.5 420.33C214.26 419.18 214.84 419.12 219.93 416.17C220.475 415.846 221.096 415.67 221.73 415.66Z" fill="#263238"/>
<path opacity="0.2" d="M221.61 401.03L221.81 409.71L229.06 409.82L228.86 401.15L221.61 401.03Z" fill="black"/>
<path d="M220.45 416.31C220.48 416.301 220.506 416.282 220.524 416.257C220.542 416.232 220.551 416.201 220.55 416.17C220.554 416.136 220.547 416.101 220.531 416.071C220.515 416.041 220.49 416.016 220.46 416C220.12 415.82 217.15 414.3 216.29 414.77C216.208 414.816 216.14 414.883 216.093 414.964C216.045 415.044 216.02 415.136 216.02 415.23V415.23C216.008 415.388 216.033 415.546 216.094 415.692C216.155 415.838 216.249 415.968 216.37 416.07C217.19 416.78 219.26 416.53 220.37 416.32L220.45 416.31ZM216.53 415.05C217.07 414.87 218.67 415.5 219.84 416.05C218.25 416.29 217.05 416.21 216.59 415.8C216.51 415.733 216.448 415.649 216.408 415.553C216.368 415.457 216.352 415.353 216.36 415.25C216.358 415.212 216.368 415.175 216.388 415.143C216.407 415.111 216.436 415.086 216.47 415.07L216.53 415.05Z" fill="#407BFF"/>
<path d="M220.45 416.31C220.474 416.292 220.492 416.267 220.503 416.239C220.514 416.21 220.516 416.18 220.51 416.15C220.399 415.111 219.973 414.131 219.29 413.34C219.153 413.223 218.993 413.136 218.822 413.083C218.65 413.029 218.469 413.011 218.29 413.03V413.03C217.82 413.03 217.69 413.31 217.66 413.5C217.56 414.32 219.35 415.92 220.24 416.32C220.272 416.338 220.309 416.347 220.346 416.345C220.383 416.343 220.419 416.331 220.45 416.31V416.31ZM218.24 413.39C218.299 413.377 218.36 413.377 218.42 413.39V413.39C218.545 413.377 218.672 413.389 218.793 413.427C218.913 413.465 219.024 413.527 219.12 413.61C219.672 414.246 220.021 415.034 220.12 415.87C219.2 415.32 217.98 414.06 218.05 413.57C218.09 413.51 218.1 413.43 218.24 413.39V413.39Z" fill="#407BFF"/>
<path d="M233.64 317.75C239.53 274.96 246.88 257.58 243.54 236.75L221.97 237.1C221.97 237.1 211.88 294.18 214.03 318.8C216.26 344.39 219.52 403.96 219.52 403.96L231.2 404.15C231.2 404.15 238 346.34 233.64 317.75Z" fill="#407BFF"/>
<path opacity="0.2" d="M243.9 256.23C242.73 267.77 239.59 280.93 236.34 300.16C233.36 283.91 232.54 264.71 243.9 256.23Z" fill="black"/>
<path d="M217.74 401.03L218.71 406.7L231.56 406.96L232.07 401.6L217.74 401.03Z" fill="#407BFF"/>
<path d="M270.33 417.97L263.07 417.86L260.67 401.03L267.93 401.14L270.33 417.97Z" fill="#FF8B7B"/>
<path d="M262.55 415.66L270.46 415.79C270.599 415.789 270.733 415.84 270.836 415.932C270.939 416.025 271.005 416.152 271.02 416.29L271.71 422.77C271.722 422.933 271.701 423.097 271.646 423.252C271.592 423.406 271.506 423.547 271.394 423.667C271.282 423.786 271.147 423.881 270.996 423.945C270.846 424.01 270.684 424.042 270.52 424.04C267.67 423.95 266.77 423.71 263.19 423.66C258.99 423.59 260.93 423.76 256.01 423.66C253.01 423.61 252.56 420.6 253.83 420.33C257.83 419.49 258.92 417.88 260.74 416.17C261.258 415.778 261.904 415.596 262.55 415.66Z" fill="#263238"/>
<path opacity="0.2" d="M260.68 401.03L261.91 409.71L269.17 409.82L267.94 401.15L260.68 401.03Z" fill="black"/>
<path d="M264 416.21C264.031 416.214 264.064 416.209 264.092 416.195C264.121 416.18 264.144 416.158 264.16 416.13C264.177 416.1 264.187 416.065 264.187 416.03C264.187 415.995 264.177 415.961 264.16 415.93C263.91 415.65 261.72 413.23 260.72 413.37C260.627 413.382 260.538 413.418 260.463 413.474C260.388 413.53 260.328 413.605 260.29 413.69V413.69C260.22 413.83 260.183 413.984 260.183 414.14C260.183 414.296 260.22 414.451 260.29 414.59C260.78 415.53 262.82 416.01 264 416.21ZM260.81 413.71C261.39 413.71 262.65 414.85 263.53 415.78C261.94 415.45 260.85 414.96 260.53 414.43C260.483 414.339 260.459 414.238 260.459 414.135C260.459 414.033 260.483 413.931 260.53 413.84C260.544 413.805 260.567 413.775 260.597 413.752C260.627 413.729 260.662 413.715 260.7 413.71H260.81Z" fill="#407BFF"/>
<path d="M264 416.21C264.029 416.203 264.056 416.188 264.077 416.167C264.098 416.146 264.113 416.119 264.12 416.09C264.438 415.115 264.438 414.065 264.12 413.09C264.04 412.938 263.929 412.805 263.795 412.698C263.661 412.591 263.506 412.514 263.34 412.47V412.47C262.88 412.35 262.67 412.52 262.57 412.69C262.15 413.41 263.21 415.49 263.89 416.17C263.92 416.197 263.96 416.211 264 416.21V416.21ZM263.07 412.76H263.25C263.373 412.793 263.487 412.851 263.587 412.931C263.687 413.01 263.769 413.108 263.83 413.22C264.102 414.003 264.134 414.849 263.92 415.65C263.28 414.83 262.62 413.25 262.92 412.82C262.86 412.83 262.9 412.76 263.05 412.76H263.07Z" fill="#407BFF"/>
<path d="M264.68 317.75C268.68 275.75 267.9 256.07 263.57 236.3L236.91 237.11C236.91 237.11 240.18 294.19 245.19 318.81C250.39 344.4 258.55 403.97 258.55 403.97L270.24 404.16C270.24 404.16 272.36 346.34 264.68 317.75Z" fill="#407BFF"/>
<path d="M256.84 401.03L257.61 406.7L270.72 406.96L271.46 401.6L256.84 401.03Z" fill="#407BFF"/>
<path d="M236 178.73L235.41 179.27L234.91 179.72L233.91 180.54C233.24 181.07 232.57 181.54 231.91 182.04C230.554 183.003 229.149 183.894 227.7 184.71C224.77 186.35 221.668 187.662 218.45 188.62C215.171 189.596 211.779 190.144 208.36 190.25C207.5 190.25 206.64 190.25 205.78 190.25L204.49 190.17H204.12L203.51 190.11C203.05 190.045 202.596 189.948 202.15 189.82C200.91 189.46 199.782 188.793 198.87 187.88C197.942 186.91 197.292 185.708 196.99 184.4C196.677 182.879 196.735 181.304 197.16 179.81C197.672 177.997 198.404 176.255 199.34 174.62C200.118 173.203 200.969 171.828 201.89 170.5C203.66 167.9 205.52 165.5 207.45 163.15C211.287 158.522 215.38 154.111 219.71 149.94L224.18 153.83C220.87 158.58 217.56 163.44 214.46 168.26C212.93 170.69 211.46 173.12 210.11 175.54C209.46 176.76 208.85 177.96 208.33 179.12C207.876 180.076 207.54 181.083 207.33 182.12C207.25 182.44 207.41 182.62 207.33 181.91C207.199 181.323 206.904 180.786 206.48 180.36C206.106 179.954 205.634 179.651 205.11 179.48C205.02 179.48 204.83 179.42 204.83 179.4H204.94H205.86C206.47 179.4 207.09 179.33 207.69 179.24C210.154 178.954 212.577 178.384 214.91 177.54C217.296 176.676 219.598 175.598 221.79 174.32C222.9 173.68 223.99 173 225.03 172.26C225.56 171.9 226.03 171.52 226.56 171.14L227.29 170.58L227.86 170.11L236 178.73Z" fill="#CE7A63"/>
<path d="M209.52 177.8L213 192.35C213 192.35 231.89 189.22 240 179.72C245.72 173.02 238 167.28 226 169.63C218.61 171.09 209.52 177.8 209.52 177.8Z" fill="#407BFF"/>
<path opacity="0.7" d="M209.52 177.8L213 192.35C213 192.35 231.89 189.22 240 179.72C245.72 173.02 238 167.28 226 169.63C218.61 171.09 209.52 177.8 209.52 177.8Z" fill="white"/>
<path d="M218.61 152L218.89 142.91L227.07 145.99C227.07 145.99 225.43 154.47 222.73 154.5L218.61 152Z" fill="#CE7A63"/>
<path d="M225.15 137.73L230.28 141.35L227.06 146L218.89 142.92L225.15 137.73Z" fill="#CE7A63"/>
<path d="M221.44 238.09L227.39 241.09L234.81 237.09L242.19 242.09L263.63 238.09C263.93 234.32 263.06 222.09 263.71 206.45C264.104 194.867 265.506 183.34 267.9 172C268.09 171.15 268.28 170.31 268.48 169.45C268.48 169.45 266.35 169.02 263.28 168.57C260.74 168.2 257.55 167.82 254.42 167.67C248.448 167.325 242.462 167.325 236.49 167.67C233.73 167.92 231.04 168.38 228.89 168.79C226.14 169.35 224.52 169.79 224.52 169.79C224.52 169.79 214.13 193.72 221.44 238.09Z" fill="#263238"/>
<path opacity="0.3" d="M263.71 206.46C264.103 194.874 265.505 183.343 267.9 172C265.08 171.76 260.26 172 259.46 176.59C258.6 181.52 259.68 193 263.71 206.46Z" fill="black"/>
<path d="M270.93 174.53C271.76 175.82 272.46 176.96 273.15 178.19C273.84 179.42 274.53 180.62 275.15 181.85C276.483 184.31 277.7 186.824 278.8 189.39C281.149 194.625 282.92 200.101 284.08 205.72L284.18 206.26L284.24 206.53L284.31 206.98C284.403 207.576 284.45 208.178 284.45 208.78C284.441 209.789 284.33 210.794 284.12 211.78C283.762 213.408 283.243 214.996 282.57 216.52C281.376 219.197 279.954 221.767 278.32 224.2C275.229 228.82 271.71 233.139 267.81 237.1L263.14 233.45C265.7 228.94 268.3 224.31 270.43 219.73C271.491 217.548 272.393 215.292 273.13 212.98C273.441 212.021 273.652 211.033 273.76 210.03C273.791 209.698 273.791 209.363 273.76 209.03C273.755 208.963 273.734 208.898 273.7 208.84C273.7 208.84 273.7 208.84 273.7 208.84L273.64 208.62L273.51 208.19L273.01 206.47L272.41 204.74C272.02 203.58 271.57 202.42 271.11 201.27C270.18 198.96 269.11 196.66 268.04 194.38C266.97 192.1 265.76 189.83 264.55 187.57C263.95 186.45 263.33 185.33 262.69 184.22L260.83 181L270.93 174.53Z" fill="#CE7A63"/>
<path d="M258 183.86C259.78 189.14 266.57 200.3 266.57 200.3L282.57 191.45C282.57 191.45 275.57 171.09 268.49 169.45C260.62 167.74 254.78 174.29 258 183.86Z" fill="#407BFF"/>
<path opacity="0.7" d="M258 183.86C259.78 189.14 266.57 200.3 266.57 200.3L282.57 191.45C282.57 191.45 275.57 171.09 268.49 169.45C260.62 167.74 254.78 174.29 258 183.86Z" fill="white"/>
<path d="M265.28 231.71L257.42 230.34L261.42 239.43C261.42 239.43 268.59 239.43 268.26 235.69L265.28 231.71Z" fill="#CE7A63"/>
<path d="M251.56 234.91L255.25 242.25L261.46 239.43L257.43 230.34L251.56 234.91Z" fill="#CE7A63"/>
<path d="M237.6 183.71C237.6 183.71 231.16 179.65 235.16 167.85L236.49 167.71C242.462 167.365 248.448 167.365 254.42 167.71C255.12 167.71 255.83 167.79 256.53 167.84C249.785 172.589 243.453 177.898 237.6 183.71Z" fill="#407BFF"/>
<path opacity="0.7" d="M237.6 183.71C237.6 183.71 231.16 179.65 235.16 167.85L236.49 167.71C242.462 167.365 248.448 167.365 254.42 167.71C255.12 167.71 255.83 167.79 256.53 167.84C249.785 172.589 243.453 177.898 237.6 183.71Z" fill="white"/>
<path d="M243.75 172.58C253.75 172.4 255.11 167.75 255.11 167.75C251.2 163.9 252.7 153.37 254.03 147.59L249.23 151.59L242.7 157C242.892 157.871 243.032 158.753 243.12 159.64C243.47 163.18 242.55 166.41 237.34 167.64C237.34 167.64 231.15 171.74 240.34 172.48L243.75 172.58Z" fill="#CE7A63"/>
<path opacity="0.2" d="M242.7 157C242.892 157.871 243.032 158.753 243.12 159.64C245.55 159.15 248.81 156.55 249.12 154.06C249.243 153.236 249.27 152.401 249.2 151.57L242.7 157Z" fill="black"/>
<path d="M232 131.52C228.91 134.46 230.45 145.52 235.9 146.12C241.35 146.72 237.85 126 232 131.52Z" fill="#263238"/>
<path d="M252.63 136.9C253.57 144.69 254.52 149.19 251.39 153.99C250.387 155.555 248.976 156.817 247.308 157.639C245.641 158.462 243.781 158.813 241.928 158.655C240.076 158.498 238.302 157.838 236.797 156.746C235.292 155.654 234.114 154.172 233.39 152.46C230.48 145.91 229.39 134.27 236.39 129.57C237.859 128.527 239.575 127.886 241.369 127.711C243.162 127.537 244.97 127.836 246.612 128.577C248.255 129.318 249.674 130.476 250.73 131.937C251.786 133.397 252.441 135.108 252.63 136.9V136.9Z" fill="#CE7A63"/>
<path d="M258.55 126.78C262.61 127.13 262.29 132.64 260.96 136.54C259.11 141.96 255.28 147.17 252.2 146.04C250.96 145.88 248.7 148.67 247.8 145.92C247.33 144.5 249.21 141.92 249.24 139.41C249.27 136.9 247.44 134.46 247.57 133.3C243.51 132.3 233.47 139.93 226.73 132.21C223.73 128.75 224.59 116.1 231.46 118.81C235.8 120.53 241.85 125.59 246.33 122.81C253.24 118.51 260.62 121.39 258.55 126.78Z" fill="#263238"/>
<path d="M256.93 143.88C256.248 145.701 254.959 147.23 253.28 148.21C251.13 149.4 249.88 147.46 250.33 145.01C250.74 142.8 252.33 139.53 254.57 139.36C256.81 139.19 257.79 141.58 256.93 143.88Z" fill="#CE7A63"/>
<path d="M241.45 141.59C241.56 142.21 241.33 142.79 240.92 142.88C240.51 142.97 240.09 142.54 239.98 141.88C239.87 141.22 240.1 140.67 240.51 140.58C240.92 140.49 241.33 141 241.45 141.59Z" fill="#263238"/>
<path d="M234.42 143.13C234.54 143.75 234.3 144.33 233.9 144.42C233.5 144.51 233.07 144.08 232.9 143.42C232.73 142.76 233.02 142.21 233.43 142.12C233.84 142.03 234.31 142.5 234.42 143.13Z" fill="#263238"/>
<path d="M236.71 143C236.311 145.079 235.638 147.097 234.71 149C235.197 149.211 235.724 149.312 236.255 149.297C236.786 149.281 237.306 149.149 237.78 148.91L236.71 143Z" fill="#BA4D3C"/>
<path d="M243.2 138.82C243.261 138.801 243.316 138.766 243.36 138.72C243.429 138.649 243.468 138.554 243.468 138.455C243.468 138.356 243.429 138.261 243.36 138.19C242.929 137.789 242.407 137.5 241.839 137.348C241.27 137.197 240.673 137.187 240.1 137.32C240.005 137.35 239.925 137.416 239.876 137.503C239.828 137.591 239.815 137.694 239.84 137.79C239.87 137.885 239.936 137.965 240.024 138.011C240.112 138.058 240.214 138.068 240.31 138.04C240.761 137.942 241.229 137.955 241.673 138.079C242.118 138.203 242.525 138.433 242.86 138.75C242.906 138.79 242.962 138.817 243.021 138.829C243.08 138.841 243.142 138.838 243.2 138.82V138.82Z" fill="#263238"/>
<path d="M231 141.36C231.057 141.337 231.108 141.302 231.149 141.257C231.191 141.212 231.222 141.158 231.24 141.1C231.355 140.64 231.574 140.212 231.879 139.848C232.184 139.484 232.567 139.194 233 139C233.093 138.967 233.169 138.898 233.211 138.809C233.253 138.72 233.258 138.618 233.225 138.525C233.192 138.432 233.123 138.356 233.034 138.314C232.945 138.272 232.843 138.267 232.75 138.3V138.3C232.199 138.536 231.71 138.896 231.322 139.353C230.933 139.809 230.655 140.349 230.51 140.93C230.485 141.027 230.5 141.129 230.551 141.215C230.601 141.301 230.683 141.364 230.78 141.39C230.855 141.4 230.931 141.39 231 141.36V141.36Z" fill="#263238"/>
<path d="M228.73 143.22L229.4 146.22C229.445 146.418 229.555 146.595 229.713 146.722C229.871 146.849 230.067 146.919 230.27 146.92C230.336 146.93 230.403 146.93 230.47 146.92L235.3 145.84C235.529 145.788 235.728 145.647 235.853 145.448C235.979 145.25 236.021 145.01 235.97 144.78L235.42 142.35C235.652 142.114 235.945 141.948 236.267 141.87C236.589 141.792 236.926 141.806 237.24 141.91L237.79 144.37C237.835 144.568 237.945 144.745 238.103 144.872C238.261 144.999 238.457 145.069 238.66 145.07C238.723 145.08 238.787 145.08 238.85 145.07L245.13 143.67C245.36 143.616 245.559 143.473 245.684 143.273C245.809 143.072 245.851 142.831 245.8 142.6L245.12 139.6C245.076 139.402 244.966 139.224 244.808 139.097C244.65 138.97 244.453 138.9 244.25 138.9H244.06L237.79 140.31C237.675 140.335 237.567 140.382 237.471 140.449C237.375 140.516 237.293 140.601 237.23 140.699C237.167 140.798 237.124 140.908 237.103 141.023C237.083 141.138 237.085 141.256 237.11 141.37V141.37C236.795 141.306 236.471 141.309 236.157 141.378C235.844 141.447 235.548 141.58 235.29 141.77C235.245 141.573 235.134 141.396 234.976 141.269C234.819 141.142 234.622 141.072 234.42 141.07C234.357 141.061 234.293 141.061 234.23 141.07L229.4 142.15C229.285 142.176 229.177 142.225 229.081 142.293C228.986 142.36 228.904 142.447 228.842 142.546C228.78 142.645 228.738 142.756 228.719 142.872C228.699 142.988 228.703 143.106 228.73 143.22V143.22ZM237.9 140.79L244.17 139.38H244.25C244.335 139.38 244.418 139.409 244.485 139.461C244.552 139.514 244.6 139.588 244.62 139.67L245.29 142.67C245.308 142.715 245.318 142.762 245.318 142.81C245.318 142.858 245.308 142.906 245.29 142.95C245.265 142.991 245.231 143.027 245.191 143.054C245.152 143.082 245.107 143.101 245.06 143.11L238.79 144.52H238.71C238.626 144.518 238.546 144.489 238.481 144.436C238.416 144.384 238.37 144.312 238.35 144.23L237.67 141.23C237.644 141.142 237.654 141.046 237.697 140.964C237.74 140.882 237.812 140.82 237.9 140.79V140.79ZM229.51 142.67L234.34 141.58H234.42C234.505 141.582 234.587 141.611 234.653 141.663C234.72 141.716 234.768 141.788 234.79 141.87L235.46 144.87C235.472 144.918 235.474 144.968 235.465 145.016C235.457 145.064 235.438 145.11 235.41 145.15C235.385 145.191 235.351 145.227 235.311 145.254C235.272 145.282 235.227 145.301 235.18 145.31L230.35 146.4H230.27C230.186 146.398 230.106 146.369 230.041 146.316C229.976 146.264 229.93 146.192 229.91 146.11L229.23 143.11C229.209 143.015 229.227 142.915 229.279 142.833C229.332 142.75 229.414 142.692 229.51 142.67V142.67Z" fill="#407BFF"/>
<path opacity="0.5" d="M228.73 143.22L229.4 146.22C229.445 146.418 229.555 146.595 229.713 146.722C229.871 146.849 230.067 146.919 230.27 146.92C230.336 146.93 230.403 146.93 230.47 146.92L235.3 145.84C235.529 145.788 235.728 145.647 235.853 145.448C235.979 145.25 236.021 145.01 235.97 144.78L235.42 142.35C235.652 142.114 235.945 141.948 236.267 141.87C236.589 141.792 236.926 141.806 237.24 141.91L237.79 144.37C237.835 144.568 237.945 144.745 238.103 144.872C238.261 144.999 238.457 145.069 238.66 145.07C238.723 145.08 238.787 145.08 238.85 145.07L245.13 143.67C245.36 143.616 245.559 143.473 245.684 143.273C245.809 143.072 245.851 142.831 245.8 142.6L245.12 139.6C245.076 139.402 244.966 139.224 244.808 139.097C244.65 138.97 244.453 138.9 244.25 138.9H244.06L237.79 140.31C237.675 140.335 237.567 140.382 237.471 140.449C237.375 140.516 237.293 140.601 237.23 140.699C237.167 140.798 237.124 140.908 237.103 141.023C237.083 141.138 237.085 141.256 237.11 141.37V141.37C236.795 141.306 236.471 141.309 236.157 141.378C235.844 141.447 235.548 141.58 235.29 141.77C235.245 141.573 235.134 141.396 234.976 141.269C234.819 141.142 234.622 141.072 234.42 141.07C234.357 141.061 234.293 141.061 234.23 141.07L229.4 142.15C229.285 142.176 229.177 142.225 229.081 142.293C228.986 142.36 228.904 142.447 228.842 142.546C228.78 142.645 228.738 142.756 228.719 142.872C228.699 142.988 228.703 143.106 228.73 143.22V143.22ZM237.9 140.79L244.17 139.38H244.25C244.335 139.38 244.418 139.409 244.485 139.461C244.552 139.514 244.6 139.588 244.62 139.67L245.29 142.67C245.308 142.715 245.318 142.762 245.318 142.81C245.318 142.858 245.308 142.906 245.29 142.95C245.265 142.991 245.231 143.027 245.191 143.054C245.152 143.082 245.107 143.101 245.06 143.11L238.79 144.52H238.71C238.626 144.518 238.546 144.489 238.481 144.436C238.416 144.384 238.37 144.312 238.35 144.23L237.67 141.23C237.644 141.142 237.654 141.046 237.697 140.964C237.74 140.882 237.812 140.82 237.9 140.79V140.79ZM229.51 142.67L234.34 141.58H234.42C234.505 141.582 234.587 141.611 234.653 141.663C234.72 141.716 234.768 141.788 234.79 141.87L235.46 144.87C235.472 144.918 235.474 144.968 235.465 145.016C235.457 145.064 235.438 145.11 235.41 145.15C235.385 145.191 235.351 145.227 235.311 145.254C235.272 145.282 235.227 145.301 235.18 145.31L230.35 146.4H230.27C230.186 146.398 230.106 146.369 230.041 146.316C229.976 146.264 229.93 146.192 229.91 146.11L229.23 143.11C229.209 143.015 229.227 142.915 229.279 142.833C229.332 142.75 229.414 142.692 229.51 142.67V142.67Z" fill="white"/>
<path d="M238.1 149.74C239.5 149.96 242.53 145.43 243.66 148.57C244.79 151.71 244.36 158.92 242.66 157C242.66 157 242.6 159.55 240.66 157.32C240.66 157.32 241.11 159.32 239.05 157.32C239.05 157.32 239.14 158.96 236.89 156.8C234.64 154.64 231.41 148.71 238.1 149.74Z" fill="#263238"/>
<path opacity="0.4" d="M238.1 149.74C239.5 149.96 242.53 145.43 243.66 148.57C244.79 151.71 244.36 158.92 242.66 157C242.66 157 242.6 159.55 240.66 157.32C240.66 157.32 241.11 159.32 239.05 157.32C239.05 157.32 239.14 158.96 236.89 156.8C234.64 154.64 231.41 148.71 238.1 149.74Z" fill="white"/>
<path d="M237.13 151.57C237.864 151.598 238.596 151.479 239.283 151.22C239.97 150.961 240.598 150.566 241.13 150.06C241.164 150.023 241.183 149.974 241.181 149.923C241.179 149.873 241.157 149.825 241.12 149.79C241.083 149.756 241.033 149.738 240.983 149.739C240.932 149.741 240.884 149.763 240.85 149.8C240.264 150.349 239.559 150.755 238.791 150.987C238.023 151.219 237.212 151.272 236.42 151.14C236.396 151.136 236.372 151.137 236.348 151.142C236.325 151.147 236.303 151.157 236.283 151.171C236.264 151.185 236.247 151.203 236.234 151.223C236.222 151.244 236.213 151.267 236.21 151.29C236.206 151.34 236.22 151.389 236.249 151.43C236.279 151.47 236.321 151.499 236.37 151.51L237.13 151.57Z" fill="#263238"/>
</svg>
